<?xml version="1.0" encoding="UTF-8" standalone="no"?>
<!-- Created with Inkscape (http://www.inkscape.org/) -->

<svg
   xmlns:dc="http://purl.org/dc/elements/1.1/"
   xmlns:cc="http://creativecommons.org/ns#"
   xmlns:rdf="http://www.w3.org/1999/02/22-rdf-syntax-ns#"
   xmlns:svg="http://www.w3.org/2000/svg"
   xmlns="http://www.w3.org/2000/svg"
   xmlns:sodipodi="http://sodipodi.sourceforge.net/DTD/sodipodi-0.dtd"
   xmlns:inkscape="http://www.inkscape.org/namespaces/inkscape"
   width="249.73412mm"
   height="508.11887mm"
   viewBox="0 0 249.73411 508.11887"
   version="1.1"
   id="svg8"
   inkscape:version="0.91+devel r"
   sodipodi:docname="genius_voronoi_B.svg">
  <sodipodi:namedview
     id="base"
     pagecolor="#ffffff"
     bordercolor="#666666"
     borderopacity="1.0"
     inkscape:pageopacity="0.0"
     inkscape:pageshadow="2"
     inkscape:zoom="0.56938515"
     inkscape:cx="518.16444"
     inkscape:cy="571.72098"
     inkscape:document-units="mm"
     inkscape:current-layer="layer1"
     showgrid="false"
     inkscape:window-width="1358"
     inkscape:window-height="698"
     inkscape:window-x="0"
     inkscape:window-y="0"
     inkscape:window-maximized="1"
     fit-margin-top="0"
     fit-margin-left="0"
     fit-margin-right="0"
     fit-margin-bottom="0" />
  <defs
     id="defs2">
    <clipPath
       id="clipPath28584"
       clipPathUnits="userSpaceOnUse">
      <path
         id="path28586"
         d="m 529.49038,15.26005 v 62.907272 a 46.948101,46.948101 0 0 1 42.09357,42.251168 h 62.86233 A 109.76981,109.76981 0 0 0 529.49038,15.26005 Z m -8.18089,0.01705 A 109.76981,109.76981 0 0 0 415.28703,120.41849 h 62.88091 A 46.948101,46.948101 0 0 1 521.30949,78.086706 Z M 415.37125,129.70267 A 109.76981,109.76981 0 0 0 521.30949,234.51023 V 171.65412 A 46.948101,46.948101 0 0 1 478.2434,129.70267 Z m 156.21529,0 a 46.948101,46.948101 0 0 1 -42.09616,41.85843 v 62.84681 A 109.76981,109.76981 0 0 0 634.4979,129.70267 Z"
         style="opacity:1;fill:#ff00ff;fill-opacity:0.575;stroke:#000000;stroke-width:1;stroke-linecap:round;stroke-linejoin:round;stroke-miterlimit:4;stroke-dasharray:none;stroke-dashoffset:0;stroke-opacity:1"
         inkscape:connector-curvature="0" />
    </clipPath>
    <clipPath
       clipPathUnits="userSpaceOnUse"
       id="clipPath36992">
      <circle
         r="118.55961"
         cy="120.61981"
         cx="-192.29863"
         id="circle36994"
         style="opacity:1;fill:#b3b3b3;fill-opacity:0.575;stroke:#4d4d4d;stroke-width:1;stroke-linecap:round;stroke-linejoin:round;stroke-miterlimit:4;stroke-dasharray:none;stroke-dashoffset:0;stroke-opacity:1" />
    </clipPath>
  </defs>
  <metadata
     id="metadata5">
    <rdf:RDF>
      <cc:Work
         rdf:about="">
        <dc:format>image/svg+xml</dc:format>
        <dc:type
           rdf:resource="http://purl.org/dc/dcmitype/StillImage" />
        <dc:title></dc:title>
      </cc:Work>
    </rdf:RDF>
  </metadata>
  <g
     inkscape:label="Camada 1"
     inkscape:groupmode="layer"
     id="layer1"
     transform="translate(-115.78786,89.512953)">
    <g
       id="g4465" />
    <path
       id="path4488"
       style="opacity:1;fill:#a3beda;fill-opacity:0.575;stroke:#000000;stroke-width:0.26458332;stroke-linecap:round;stroke-linejoin:round;stroke-miterlimit:4;stroke-dasharray:none;stroke-dashoffset:45;stroke-opacity:1"
       d="m 282.58622,287.60136 a 1.5,1.5 0 0 1 -1.50017,1.50017 1.5,1.5 0 0 1 -1.50016,-1.50017 1.5,1.5 0 0 1 1.50016,-1.49965 1.5,1.5 0 0 1 1.50017,1.49965 z m -38.85913,-38.85913 a 1.5,1.5 0 0 1 -1.50017,1.50018 1.5,1.5 0 0 1 -1.50016,-1.50017 1.5,1.5 0 0 1 1.50017,-1.49966 1.5,1.5 0 0 1 1.50016,1.49965 z m 0,77.89293 a 1.5,1.5 0 0 1 -1.50017,1.49964 1.5,1.5 0 0 1 -1.50016,-1.49965 1.5,1.5 0 0 1 1.50016,-1.50017 1.5,1.5 0 0 1 1.50017,1.50018 z m -39.03379,-39.0338 a 1.5,1.5 0 0 1 -1.49965,1.50016 1.5,1.5 0 0 1 -1.50017,-1.50016 1.5,1.5 0 0 1 1.50017,-1.49965 1.5,1.5 0 0 1 1.49965,1.49965 z m 157.52682,0 a 1.5,1.5 0 0 1 -1.50017,1.50017 1.5,1.5 0 0 1 -1.50017,-1.50017 1.5,1.5 0 0 1 1.50017,-1.49965 1.5,1.5 0 0 1 1.50017,1.49965 z M 243.72709,168.41019 a 1.5,1.5 0 0 1 -1.50016,1.50016 1.5,1.5 0 0 1 -1.50017,-1.50017 1.5,1.5 0 0 1 1.50017,-1.50017 1.5,1.5 0 0 1 1.50016,1.50018 z m 0,238.38286 a 1.5,1.5 0 0 1 -1.50016,1.49965 1.5,1.5 0 0 1 -1.50017,-1.49965 1.5,1.5 0 0 1 1.50017,-1.50017 1.5,1.5 0 0 1 1.50016,1.50017 z M 124.04293,287.60136 a 1.5,1.5 0 0 1 -1.50017,1.50016 1.5,1.5 0 0 1 -1.50017,-1.50016 1.5,1.5 0 0 1 1.50017,-1.49965 1.5,1.5 0 0 1 1.50017,1.49965 z m 202.85756,-85.26914 a 1.5,1.5 0 0 1 0,2.12155 1.5,1.5 0 0 1 -2.12156,1e-5 1.5,1.5 0 0 1 3.7e-4,-2.12119 1.5,1.5 0 0 1 2.12119,-3.7e-4 z m -168.06811,-0.49366 a 1.5,1.5 0 0 1 1e-5,2.12155 1.5,1.5 0 0 1 -2.12156,0 1.5,1.5 0 0 1 0,-2.12156 1.5,1.5 0 0 1 2.12155,1e-5 z M 327.39452,370.4007 a 1.5,1.5 0 0 1 -3.6e-4,2.12119 1.5,1.5 0 0 1 -2.12119,3.6e-4 1.5,1.5 0 0 1 0,-2.12156 1.5,1.5 0 0 1 2.12155,10e-6 z m -168.91073,0.34823 a 1.5,1.5 0 0 1 -1e-5,2.12155 1.5,1.5 0 0 1 -2.12155,1e-5 1.5,1.5 0 0 1 3.7e-4,-2.1212 1.5,1.5 0 0 1 2.12119,-3.6e-4 z M 366.60021,287.52457 A 124.86722,124.86722 0 0 0 241.7329,162.65757 124.86722,124.86722 0 0 0 116.8661,287.52488 124.86722,124.86722 0 0 0 241.73291,412.39219 124.86722,124.86722 0 0 0 366.60021,287.52489 Z"
       inkscape:connector-curvature="0" />
    <path
       inkscape:connector-curvature="0"
       d="m 158.48378,119.6149 a 1.5,1.5 0 0 1 0,2.12155 1.5,1.5 0 0 1 -2.12156,10e-6 1.5,1.5 0 0 1 2.7e-4,-2.1212 1.5,1.5 0 0 1 2.12119,-2.6e-4 z m 168.91073,-0.34823 a 1.5,1.5 0 0 1 -2.6e-4,2.12118 1.5,1.5 0 0 1 -2.12119,2.7e-4 1.5,1.5 0 0 1 0,-2.12156 1.5,1.5 0 0 1 2.12155,1e-5 z M 158.83237,-49.295475 a 1.5,1.5 0 0 1 1e-5,2.121551 1.5,1.5 0 0 1 -2.12156,3e-6 1.5,1.5 0 0 1 0,-2.121559 1.5,1.5 0 0 1 2.12155,5e-6 z m 168.06811,0.493662 a 1.5,1.5 0 0 1 0,2.121559 1.5,1.5 0 0 1 -2.12156,3e-6 1.5,1.5 0 0 1 2.7e-4,-2.121194 1.5,1.5 0 0 1 2.12119,-2.64e-4 z M 124.04292,36.467332 a 1.5,1.5 0 0 1 -1.50017,1.500161 1.5,1.5 0 0 1 -1.50017,-1.500161 1.5,1.5 0 0 1 1.50017,-1.499656 1.5,1.5 0 0 1 1.50017,1.499656 z M 243.72708,155.65902 a 1.5,1.5 0 0 1 -1.50016,1.49965 1.5,1.5 0 0 1 -1.50017,-1.49965 1.5,1.5 0 0 1 1.50017,-1.50017 1.5,1.5 0 0 1 1.50016,1.50017 z m 0,-238.38286 a 1.5,1.5 0 0 1 -1.50016,1.50016 1.5,1.5 0 0 1 -1.50017,-1.50017 1.5,1.5 0 0 1 1.50017,-1.50017 1.5,1.5 0 0 1 1.50016,1.50018 z M 362.22012,36.467326 a 1.5,1.5 0 0 1 -1.5002,1.500169 1.5,1.5 0 0 1 -1.5001,-1.500169 1.5,1.5 0 0 1 1.5001,-1.499647 1.5,1.5 0 0 1 1.5002,1.499647 z m -157.52683,0 a 1.5,1.5 0 0 1 -1.49965,1.500167 1.5,1.5 0 0 1 -1.50017,-1.500161 1.5,1.5 0 0 1 1.50017,-1.499656 1.5,1.5 0 0 1 1.49965,1.49965 z m 39.03379,39.0338 a 1.5,1.5 0 0 1 -1.50016,1.499645 1.5,1.5 0 0 1 -1.50017,-1.499648 1.5,1.5 0 0 1 1.50017,-1.500169 1.5,1.5 0 0 1 1.50016,1.500172 z m 0,-77.892926 a 1.5,1.5 0 0 1 -1.50016,1.500171 1.5,1.5 0 0 1 -1.50017,-1.500166 1.5,1.5 0 0 1 1.50017,-1.499656 1.5,1.5 0 0 1 1.50016,1.499651 z m 38.85913,38.859126 a 1.5,1.5 0 0 1 -1.50017,1.500169 1.5,1.5 0 0 1 -1.50016,-1.500169 1.5,1.5 0 0 1 1.50016,-1.499647 1.5,1.5 0 0 1 1.50017,1.499647 z m 71.22771,-0.08578 A 112.08408,112.08408 0 0 0 242.66048,-75.65761 v 67.492522 a 44.605048,44.605048 0 0 1 8.67492,1.069181 0.97734419,0.97734419 0 0 1 0.67387,-0.261993 0.97734419,0.97734419 0 0 1 0.96843,0.985967 0.97734419,0.97734419 0 0 1 -0.986,0.968417 0.97734419,0.97734419 0 0 1 -0.88935,-0.594796 43.49514,43.49514 0 0 0 -9.37203,-1.103291 43.49514,43.49514 0 0 0 -8.71937,0.914675 0.97734419,0.97734419 0 0 1 -0.9126,0.608229 0.97734419,0.97734419 0 0 1 -0.96891,-0.98602 0.97734419,0.97734419 0 0 1 0.98599,-0.968412 0.97734419,0.97734419 0 0 1 0.69453,0.298691 44.605048,44.605048 0 0 1 8.9085,-0.976683 l -4e-5,-67.479047 A 112.08408,112.08408 0 0 0 129.64671,36.381546 l 67.47908,2e-6 a 44.605048,44.605048 0 0 1 0.90589,-8.797395 0.97734419,0.97734419 0 0 1 -0.27388,-0.667145 0.97734419,0.97734419 0 0 1 0.96686,-0.987538 0.97734419,0.97734419 0 0 1 0.98753,0.96688 0.97734419,0.97734419 0 0 1 -0.5302,0.879017 43.49514,43.49514 0 0 0 -0.94672,8.618082 43.49514,43.49514 0 0 0 1.1126,9.517761 0.97734419,0.97734419 0 0 1 0.57361,0.878499 0.97734419,0.97734419 0 0 1 -0.96687,0.987531 0.97734419,0.97734419 0 0 1 -0.98757,-0.967343 0.97734419,0.97734419 0 0 1 0.32297,-0.734838 44.605048,44.605048 0 0 1 -1.13171,-8.751406 l -67.4656,-4.5e-5 A 112.08408,112.08408 0 0 0 241.71842,148.47703 V 80.997942 a 44.605048,44.605048 0 0 1 -8.90282,-0.928111 0.97734419,0.97734419 0 0 1 -0.70021,0.30955 0.97734419,0.97734419 0 0 1 -0.98856,-0.966359 0.97734419,0.97734419 0 0 1 0.96583,-0.988571 0.97734419,0.97734419 0 0 1 0.85628,0.488858 43.49514,43.49514 0 0 0 8.78137,0.97514 43.49514,43.49514 0 0 0 9.35861,-1.075904 0.97734419,0.97734419 0 0 1 0.89658,-0.617535 0.97734419,0.97734419 0 0 1 0.98858,0.965816 0.97734419,0.97734419 0 0 1 -0.96583,0.988571 0.97734419,0.97734419 0 0 1 -0.68884,-0.273881 44.605048,44.605048 0 0 1 -8.65891,1.099153 V 148.4305 A 112.08408,112.08408 0 0 0 353.78142,37.323682 l -67.4926,-7.4e-5 a 44.605048,44.605048 0 0 1 -1.09088,8.784473 0.97734419,0.97734419 0 0 1 0.29404,0.706422 0.97734419,0.97734419 0 0 1 -0.98702,0.967378 0.97734419,0.97734419 0 0 1 -0.96792,-0.98701 0.97734419,0.97734419 0 0 1 0.55398,-0.870233 43.49514,43.49514 0 0 0 1.13429,-9.531199 43.49514,43.49514 0 0 0 -0.8878,-8.579842 0.97734419,0.97734419 0 0 1 -0.60358,-0.911572 0.97734419,0.97734419 0 0 1 0.98651,-0.967901 0.97734419,0.97734419 0 0 1 0.96791,0.987001 0.97734419,0.97734419 0 0 1 -0.3085,0.702281 44.605048,44.605048 0 0 1 0.95498,8.758126 z m 1.0516,0.0093 A 113.13255,113.13255 0 0 1 241.73289,149.52348 113.13255,113.13255 0 0 1 128.60078,36.390846 113.13255,113.13255 0 0 1 241.73289,-76.74178 113.13255,113.13255 0 0 1 354.86552,36.390843 Z m 11.7347,8e-6 A 124.86722,124.86722 0 0 0 241.73289,-88.47646 124.86722,124.86722 0 0 0 116.86609,36.390846 124.86722,124.86722 0 0 0 241.73289,161.25816 124.86722,124.86722 0 0 0 366.60022,36.390851 Z"
       style="opacity:1;fill:#a3beda;fill-opacity:0.575;stroke:#000000;stroke-width:0.26458332;stroke-linecap:round;stroke-linejoin:round;stroke-miterlimit:4;stroke-dasharray:none;stroke-dashoffset:45;stroke-opacity:1"
       id="path4473-2" />
  </g>
</svg>
