<?xml version="1.0" encoding="UTF-8" standalone="no"?>
<!-- Created with Inkscape (http://www.inkscape.org/) -->

<svg
   xmlns:dc="http://purl.org/dc/elements/1.1/"
   xmlns:cc="http://creativecommons.org/ns#"
   xmlns:rdf="http://www.w3.org/1999/02/22-rdf-syntax-ns#"
   xmlns:svg="http://www.w3.org/2000/svg"
   xmlns="http://www.w3.org/2000/svg"
   xmlns:sodipodi="http://sodipodi.sourceforge.net/DTD/sodipodi-0.dtd"
   xmlns:inkscape="http://www.inkscape.org/namespaces/inkscape"
   width="249.73412mm"
   height="508.11887mm"
   viewBox="0 0 249.73411 508.11887"
   version="1.1"
   id="svg8"
   inkscape:version="0.91+devel r"
   sodipodi:docname="genius_voronoi_A.svg">
  <sodipodi:namedview
     id="base"
     pagecolor="#ffffff"
     bordercolor="#666666"
     borderopacity="1.0"
     inkscape:pageopacity="0.0"
     inkscape:pageshadow="2"
     inkscape:zoom="0.56938515"
     inkscape:cx="237.15957"
     inkscape:cy="641.97219"
     inkscape:document-units="mm"
     inkscape:current-layer="layer1"
     showgrid="false"
     inkscape:window-width="1358"
     inkscape:window-height="698"
     inkscape:window-x="0"
     inkscape:window-y="0"
     inkscape:window-maximized="1"
     fit-margin-top="0"
     fit-margin-left="0"
     fit-margin-right="0"
     fit-margin-bottom="0" />
  <defs
     id="defs2">
    <clipPath
       id="clipPath28584"
       clipPathUnits="userSpaceOnUse">
      <path
         id="path28586"
         d="m 529.49038,15.26005 v 62.907272 a 46.948101,46.948101 0 0 1 42.09357,42.251168 h 62.86233 A 109.76981,109.76981 0 0 0 529.49038,15.26005 Z m -8.18089,0.01705 A 109.76981,109.76981 0 0 0 415.28703,120.41849 h 62.88091 A 46.948101,46.948101 0 0 1 521.30949,78.086706 Z M 415.37125,129.70267 A 109.76981,109.76981 0 0 0 521.30949,234.51023 V 171.65412 A 46.948101,46.948101 0 0 1 478.2434,129.70267 Z m 156.21529,0 a 46.948101,46.948101 0 0 1 -42.09616,41.85843 v 62.84681 A 109.76981,109.76981 0 0 0 634.4979,129.70267 Z"
         style="opacity:1;fill:#ff00ff;fill-opacity:0.575;stroke:#000000;stroke-width:1;stroke-linecap:round;stroke-linejoin:round;stroke-miterlimit:4;stroke-dasharray:none;stroke-dashoffset:0;stroke-opacity:1"
         inkscape:connector-curvature="0" />
    </clipPath>
    <clipPath
       clipPathUnits="userSpaceOnUse"
       id="clipPath36992">
      <circle
         r="118.55961"
         cy="120.61981"
         cx="-192.29863"
         id="circle36994"
         style="opacity:1;fill:#b3b3b3;fill-opacity:0.575;stroke:#4d4d4d;stroke-width:1;stroke-linecap:round;stroke-linejoin:round;stroke-miterlimit:4;stroke-dasharray:none;stroke-dashoffset:0;stroke-opacity:1" />
    </clipPath>
  </defs>
  <metadata
     id="metadata5">
    <rdf:RDF>
      <cc:Work
         rdf:about="">
        <dc:format>image/svg+xml</dc:format>
        <dc:type
           rdf:resource="http://purl.org/dc/dcmitype/StillImage" />
        <dc:title />
      </cc:Work>
    </rdf:RDF>
  </metadata>
  <g
     inkscape:label="Camada 1"
     inkscape:groupmode="layer"
     id="layer1"
     transform="translate(-115.78786,89.512953)">
    <g
       id="g4465" />
    <path
       style="color:#000000;font-style:normal;font-variant:normal;font-weight:normal;font-stretch:normal;font-size:medium;line-height:normal;font-family:sans-serif;font-variant-ligatures:normal;font-variant-position:normal;font-variant-caps:normal;font-variant-numeric:normal;font-variant-alternates:normal;font-feature-settings:normal;text-indent:0;text-align:start;text-decoration:none;text-decoration-line:none;text-decoration-style:solid;text-decoration-color:#000000;letter-spacing:normal;word-spacing:normal;text-transform:none;writing-mode:lr-tb;direction:ltr;text-orientation:mixed;baseline-shift:baseline;text-anchor:start;white-space:normal;shape-padding:0;clip-rule:nonzero;display:inline;overflow:visible;visibility:visible;opacity:1;isolation:auto;mix-blend-mode:normal;color-interpolation:sRGB;color-interpolation-filters:linearRGB;solid-color:#000000;solid-opacity:1;fill:#000000;fill-opacity:1;fill-rule:nonzero;stroke:none;stroke-width:1;stroke-linecap:round;stroke-linejoin:round;stroke-miterlimit:4;stroke-dasharray:none;stroke-dashoffset:0;stroke-opacity:1;color-rendering:auto;image-rendering:auto;shape-rendering:auto;text-rendering:auto;enable-background:accumulate"
       d="m 246.30316,-73.73274 a 0.50005001,0.50005001 0 0 0 -0.47283,0.49816 v 62.90779 a 0.50005001,0.50005001 0 0 0 0.45114,0.498163 c 22.08903,2.194597 39.53243,19.703984 41.64449,41.801065 a 0.50005001,0.50005001 0 0 0 0.49816,0.451136 h 62.86333 a 0.50005001,0.50005001 0 0 0 0.49972,-0.519866 C 349.43296,-25.352064 303.60286,-71.2681 246.35174,-73.73274 a 0.50005001,0.50005001 0 0 0 -0.0486,0 z m -8.17004,0.0155 c -57.66268,1.91963 -104.10489,47.976294 -106.50564,105.620948 a 0.50005001,0.50005001 0 0 0 0.49972,0.519866 h 62.8809 a 0.50005001,0.50005001 0 0 0 0.49816,-0.451136 c 2.15466,-22.483331 20.16151,-40.152869 42.68163,-41.881165 a 0.50005001,0.50005001 0 0 0 0.46302,-0.49816 V -73.21701 a 0.50005001,0.50005001 0 0 0 -0.51779,-0.50022 z m 8.69715,1.02939 c 2.65964,0.12717 5.29436,0.34896 7.9003,0.66198 l -4.26384,3.33416 -3.63646,-2.29547 z m -9.1793,0.0134 v 6.892599 l -0.25061,0.166398 -5.36816,-6.700887 c 1.85986,-0.16565 3.73317,-0.28647 5.61877,-0.35811 z m -6.81043,0.47025 5.91902,7.389732 -7.73543,1.69292 -3.47266,-4.525822 1.7544,-4.14548 c 1.17242,-0.15579 2.35077,-0.29292 3.53467,-0.41135 z m 25.28734,0.35605 c 0.5733,0.0763 1.14472,0.15825 1.71514,0.2434 l 2.36524,13.695804 -4.80282,0.736389 -4.18526,-5.960876 -0.21238,-4.713408 z m -29.978,0.21549 -1.57975,3.734143 -5.37435,3.785298 -4.70411,0.463021 -4.70513,-3.981152 0.28008,-0.431498 c 5.20698,-1.577578 10.57847,-2.778582 16.08326,-3.569812 z m 32.73494,0.18811 c 1.85737,0.29557 3.69906,0.63772 5.5237,1.025256 l -1.52342,12.288139 -1.67999,0.111104 z m 6.50451,1.23868 c 2.18866,0.485969 4.35234,1.036977 6.48901,1.651579 l -0.0382,1.524455 -2.34352,7.294645 -2.55643,3.210656 -3.06909,-1.432987 z m -18.55906,0.401009 3.18016,2.007113 0.20206,4.485514 -2.75281,0.974101 -0.62941,-0.342615 z m 26.04129,1.541508 c 2.07955,0.619682 4.13303,1.299282 6.15829,2.037085 l -2.16112,3.665926 -4.02558,-4.568713 z m -65.61097,1.09089 1.66655,0.12454 4.86225,4.11241 -1.21647,6.942212 -9.98596,-0.543636 2.45205,-9.260933 1.71723,-1.204578 c 0.16803,-0.05685 0.33594,-0.113961 0.50435,-0.170015 z m 17.61236,0.283186 3.49541,4.556828 2.4789,8.196399 -4.43021,1.669666 -0.2527,-0.120406 -6.13296,-10.892359 z m -20.27008,0.783932 0.002,0.0031 -0.002,-5.17e-4 z m 67.94262,0.151929 3.48094,3.950146 -5.30511,1.727543 z m 7.38198,0.173116 5.46479,3.874699 -0.64233,3.060278 -4.43593,1.006657 -2.74711,-3.937228 z m -75.9783,0.192753 -2.45671,9.276953 -1.12758,1.300696 -4.25968,-3.245797 -1.24643,-3.920174 c 2.57532,-1.226483 5.20594,-2.355448 7.88789,-3.381706 z m 79.51194,1.086755 c 0.97613,0.404843 1.94578,0.821637 2.9073,1.25367 l -0.47334,0.471806 z m -46.57288,0.681612 0.76274,3.200322 v 3.688663 l -4.55112,2.776575 -1.25524,-0.140043 -2.389,-7.898743 z m -17.5152,0.19017 0.001,10e-4 -5.1e-4,5.17e-4 z m -5.04103,0.49661 5e-4,0.0015 -0.002,-5.16e-4 z m 4.7661,0.03514 5.88078,10.442257 -10.66188,0.624251 -0.81804,-3.455086 1.25986,-7.184575 z m 68.24286,0.294039 c 1.97028,0.90868 3.90906,1.873619 5.81361,2.89388 l -4.88394,4.70979 -2.56109,-3.351217 0.69919,-3.322794 z m -36.80393,0.435632 4.06331,5.787244 -1.6211,3.49436 -5.79705,2.586406 -0.35192,-0.263033 v -10.232967 l 0.77618,-0.332797 z m 35.41231,0.24443 5e-4,10e-4 -10e-4,-5.16e-4 z m -92.0006,0.385506 1.11982,3.523299 -9.01031,4.429187 -0.43976,-0.551904 -0.35139,-0.561206 0.51935,-2.418457 c 2.64996,-1.584665 5.37276,-3.06051 8.16229,-4.420919 z m 82.80889,0.548287 2.68976,3.856612 -2.64687,2.658236 -8.49455,-0.373621 -0.59428,-0.840776 2.53367,-3.180684 z m 17.31886,1.780253 c 1.32601,0.72686 2.63467,1.480822 3.92636,2.260327 l -8.82684,2.819466 -0.17055,-0.189135 z m -9.10593,1.538407 2.30995,3.022555 -7.25951,5.913334 -2.41948,-5.124752 2.74865,-2.762622 z m -89.35164,0.500745 4.29173,3.270085 -0.47284,4.773868 -0.19121,0.09509 -4.28861,1.843815 -7.26054,-2.786393 -1.13741,-2.745052 z m 84.47804,0.0925 5.3e-4,0.001 -10e-4,-5.17e-4 z m -16.86253,0.125573 3.51814,1.641244 0.7896,1.112594 0.007,1.079004 -5.95882,13.087056 -2.40191,-1.595769 -0.63148,-0.671793 -4.65243,-10.206095 1.61075,-3.471623 5.31802,-0.815971 z m -78.62363,0.547771 -0.26665,1.241267 -1.40301,-0.192752 c 0.5532,-0.354261 1.10972,-0.704015 1.66966,-1.048515 z m 114.51963,0.14521 c 1.77228,1.099005 3.51054,2.247052 5.21311,3.442684 l -4.1248,6.430099 -8.44291,-1.198377 -2.10426,-5.652885 z m -61.47946,0.701766 v 8.234123 l -1.6991,-0.944645 -2.10944,-4.968689 z m -35.48724,0.197921 10.42469,0.567924 0.81391,3.433899 -0.73845,1.646928 -9.60665,1.953369 -2.61898,-1.334285 0.48009,-4.830713 z m -20.50314,0.836642 2.77659,0.381888 0.10128,0.161748 -10.82416,8.018115 -1.43092,-1.627808 c 2.99548,-2.472794 6.12582,-4.787151 9.37721,-6.933943 z m 106.33718,0.579292 0.58652,0.651123 2.2433,6.028573 -5.08238,4.93975 -4.05246,-1.939933 -1.33533,-2.816366 -0.0124,-0.629419 z m -19.45307,0.107487 8.13181,0.358118 2.66599,5.6472 0.007,0.381889 -6.65282,0.127641 -4.14859,-5.850805 z m -83.42746,0.671794 0.36639,0.460437 1.26709,3.058728 -7.91734,11.370365 -4.51392,-6.889502 z m 46.40646,0.04082 1.34257,0.149862 2.14974,5.059639 -1.70275,4.114478 -7.63675,-0.709001 1.16065,-6.848677 z m -45.60549,0.163815 5.3e-4,0.001 -0.004,0.0016 z m 119.24183,0.722436 c 3.41884,2.447899 6.68986,5.08805 9.79784,7.904944 l -3.84627,3.399792 -9.85883,-5.214613 z m -37.01634,0.224276 3.78375,5.336625 -0.74104,8.582422 -1.28262,1.727543 -7.22178,-2.340942 -0.32298,-0.603064 z m -15.03992,0.164331 4.2664,9.356018 -10.53991,0.261999 v -5.772257 l 0.65423,-1.337903 z m -27.39367,0.351916 0.12764,0.06098 -1.22473,7.216096 -1.03817,2.008147 -7.34272,0.544153 -2.67891,-7.581967 0.70745,-1.57458 z m -38.2075,2.519743 6.92672,2.657202 -1.03714,9.491927 -0.53383,0.974618 -11.53107,2.257743 -1.99575,-3.17655 -0.008,-0.45682 z m 25.18606,0.28267 2.6448,7.486365 -1.16168,1.761649 -6.51483,2.230355 -1.09194,-1.088822 -2.92126,-8.550382 z m -12.70825,0.49196 2.59879,1.323433 2.85977,8.366415 -4.54234,0.115755 z m 35.57714,0.286287 h 0.001 l -5e-4,5.17e-4 z m -36.54814,0.0739 0.89194,9.547737 -5.45343,1.008207 0.98546,-9.018054 z m 36.79672,0.636653 1.84483,1.025261 v 7.429003 l -2.80188,-1.18649 -0.69297,-3.281971 z m 55.60435,0.07338 v 10e-4 l -5.3e-4,-5.16e-4 z m -119.89501,0.184485 1.73633,1.976623 5.07204,7.74268 0.003,0.161747 -12.75011,1.484664 -4.15427,-1.718758 c 3.15499,-3.425875 6.52687,-6.648024 10.09292,-9.646956 z m 23.45283,0.298173 0.001,10e-4 h -0.002 z m 96.61374,0.04702 8.32043,1.181324 -0.20619,5.237923 -11.205,4.929931 -1.16014,-0.703833 -0.9524,-5.588289 z m -12.03492,0.147795 1.12708,2.377116 -8.41809,5.217769 0.64489,-7.465177 z m -105.90516,1.169438 v 5.16e-4 l -0.003,0.0021 z m 127.25373,0.0801 9.71259,5.138704 -1.40663,6.047176 -5.75572,-0.130224 -2.75902,-5.808431 z m -75.80622,1.143599 0.004,0.001 v 10e-4 z m 90.61101,0.407727 c 1.37901,1.27307 2.72576,2.58086 4.03746,3.922758 l 0.9493,5.017265 -7.5551,3.191536 -2.97344,-2.194181 1.47587,-6.345349 z m -90.31751,0.122474 7.83778,0.727604 0.6222,2.944523 -6.40946,3.059761 -2.96984,-4.953702 z m 55.9656,0.211873 4.04471,1.935799 0.93379,5.491655 -8.32249,5.295799 -6.30193,-3.537767 -1.00719,-1.622123 1.31929,-1.777153 z m -57.45697,1.583882 0.001,5.17e-4 -0.001,5.17e-4 z m 34.03772,0.229444 0.10956,0.116272 -11.20862,5.555733 v -5.395536 z m 0.93792,0.262516 -0.002,0.0021 -5e-4,-5.16e-4 z m -35.24642,0.02997 3.11558,5.194514 -0.008,0.468706 -7.63984,5.684407 -4.02508,-9.114689 1.10641,-1.680001 z m 35.20768,0.54932 2.59466,1.723926 0.31264,0.58291 -10.2216,11.13627 -2.47065,-1.102257 -2.21329,-3.895886 v -2.498039 z m 52.3539,0.334863 0.002,0.0016 -0.002,-5.17e-4 z m -11.00087,0.478007 h 0.002 l -10e-4,5.17e-4 z m -0.24186,0.653707 2.61586,5.503023 -1.38957,2.125452 -4.25452,2.298052 -4.40955,-0.179319 -3.30523,-5.022432 z m -65.51125,0.166915 3.22254,1.365808 v 3.523816 l -6.66469,2.731615 -3.26028,-4.059699 0.007,-0.364319 z m 86.57716,0.620117 c 1.87161,1.979691 3.67078,4.028262 5.39139,6.143811 l -4.69738,-2.474267 z m -106.78056,0.0026 4.13255,9.364286 -0.74517,3.024621 -5.44359,-0.04961 -0.39172,-0.252698 -4.3589,-7.86877 0.52554,-2.06809 z m 57.44506,0.498161 h 0.002 l 10e-4,0.0021 z m -8.8651,0.293522 6.95875,2.255676 1.01288,1.631942 -4.55271,9.641789 -3.02099,0.483175 z m -56.87454,0.09302 1.0392,1.033012 -0.52141,2.058273 -7.81762,5.115449 -4.84881,-6.14226 0.42117,-0.765845 6.29263,-1.161169 z m -27.10948,0.141594 0.001,0.001 h -0.003 z m 83.00167,0.409794 0.38704,13.635861 -4.99555,2.315104 -4.94234,-5.543333 z m -101.11581,0.45682 4.35115,1.800923 1.66556,9.322946 -0.51935,0.803052 -6.79443,-8.127671 1.16015,-3.648872 c 0.0454,-0.0504 0.0915,-0.100066 0.13692,-0.150378 z m 17.87282,0.42478 1.99575,3.178617 -0.26096,3.312978 -12.66952,3.678327 -1.55702,-8.71523 z m -13.07672,1.017509 v 0.0026 h -0.001 z m 121.3802,0.01344 1.21645,0.737422 3.55327,5.401738 -1.72598,3.642672 -2.93008,4.536157 -8.41187,-9.022188 -0.003,-0.01447 z m -93.90332,0.200504 5.00382,6.333981 -8.63875,4.450889 -3.12126,1.262973 -3.76978,-1.88309 -1.16375,-4.566645 0.26406,-3.361036 z m 34.15553,0.250114 3.20395,3.992005 0.3333,5.97948 -1.12136,0.983919 -8.78758,0.913638 -2.21745,-2.89026 0.78031,-3.167251 z m -68.20979,0.114722 -0.54517,1.711523 -1.56374,3.368786 -2.03968,1.939933 -1.34461,-0.08113 c 1.73853,-2.388275 3.57129,-4.703194 5.4932,-6.93911 z m 162.32807,0.08268 -5.1e-4,0.001 -5.3e-4,-5.17e-4 z m -0.0227,0.553972 6.33759,3.337263 0.71675,0.644406 c 0.34137,0.444383 0.6798,0.890727 1.01442,1.340487 l -1.04749,4.055049 -4.64725,2.632914 -10.19008,0.05891 0.1447,-8.827886 z m -114.52273,0.449584 3.90777,7.053834 -0.53586,0.08268 -10.6402,-1.212848 -0.41444,-0.870746 v -0.02274 z m 96.68714,0.257866 6.03115,0.136424 3.13624,2.312006 -0.15296,9.21339 -1.24748,1.317233 -0.17362,0.08216 -2.29703,-0.116787 -2.45722,-2.252059 -4.14599,-8.694045 z m -31.82752,0.0863 6.01099,3.374988 0.0248,0.11679 -2.1518,5.322154 -7.9716,0.780831 -0.30748,-0.284737 z m -33.91681,0.0031 v 2.733683 l -1.41282,5.92057 -4.57801,-0.470257 -0.31162,-5.600173 z m -78.67943,1.379244 6.6952,8.009331 -0.28319,0.600996 -7.53493,-6.188771 z m 142.31947,1.181322 3.69332,7.743198 -6.03424,-0.699699 -1.33999,-5.056539 z m -54.46074,0.306959 1.18493,2.087211 -1.18493,0.722955 z m -89.60072,1.072803 0.003,0.001 -5.3e-4,10e-4 z m 139.79712,0.3545 5.3e-4,10e-4 -5.3e-4,5.16e-4 z m -18.73321,0.156064 7.38817,7.923546 -9.44025,-0.134874 0.0584,-2.861842 z m -97.86535,0.01757 1.05886,4.152201 -4.24109,6.516399 -11.45923,-2.343526 0.26199,-1.866553 0.64233,-1.366324 0.87746,-1.356508 z m -23.17171,0.140559 7.77214,6.381523 -0.27491,1.966806 -5.45137,5.538163 -3.76928,-12.247832 z m 135.27754,0.0041 4.10361,0.166915 1.38753,5.237406 -0.54467,1.191657 -6.45285,-3.413744 z m -94.23818,0.886767 0.33229,0.698148 0.4785,2.827218 -2.5895,1.808676 -5.59964,-1.533242 z m 131.76869,0.06563 c 3.03861,4.186187 5.78654,8.597601 8.21605,13.203843 l -0.45167,0.447519 -1.37924,0.868164 -7.22643,-11.263395 z m -81.33818,0.125574 2.43448,1.084169 -4.33048,7.066235 v -6.992852 z m -95.98483,0.774112 1.84743,0.11162 3.89641,12.667445 -7.82383,0.531749 -2.79826,-5.823415 c 1.52617,-2.565607 3.15367,-5.063683 4.87825,-7.487399 z m 46.9713,0.149344 8.74572,0.996839 -2.93833,1.595252 -5.47719,-0.641823 z m 37.93823,0.429948 v 2.065507 l -0.44492,-0.199988 z m 14.2131,0.495059 4.73252,5.310272 0.32504,6.939627 -1.92751,0.610817 -8.16385,-3.587379 v -1.05885 z m -33.86098,0.0052 0.001,5.16e-4 -0.001,5.16e-4 z m -6.7138,0.07028 0.0811,0.05219 -5.72574,11.378634 -0.1297,-0.01602 0.58238,-8.998934 4.15583,-2.25671 z m -44.03815,0.160197 5.3e-4,10e-4 -0.001,-5.19e-4 z m 45.07373,0.218075 5.43121,0.04961 2.25464,2.939355 -1.75545,10.829829 -2.58382,1.121897 -4.9625,-1.058333 -4.12017,-2.480469 z m 78.04433,0.02067 0.002,0.001 v 5.16e-4 z m 0.17365,0.657842 6.61095,3.494878 -0.73689,3.758944 -6.18463,5.612058 -0.84802,0.09509 -1.74924,-8.460983 z m 38.14082,0.236678 0.002,5.18e-4 -0.002,5.16e-4 z m -97.33103,0.248565 5.13821,0.528132 1.16012,0.521414 v 8.311121 l -0.15864,0.124542 -0.54261,0.236159 -3.04062,-0.163814 -2.52904,-3.705717 -1.06972,-4.938199 z m -65.09731,0.155027 0.003,0.0021 -0.003,-0.0016 z m 15.9453,0.04548 3.67988,1.837613 3.53208,4.379577 -1.6397,5.699394 -9.77615,-0.240813 -0.0176,-5.190379 z m 84.36332,0.06718 5e-4,5.18e-4 -5e-4,5.16e-4 z m 61.95486,0.151929 7.24246,11.288717 -0.76636,3.307808 -2.03348,2.212268 -10.35698,0.117822 -0.2775,-1.049031 1.87015,-13.42812 z m -128.2614,0.0217 4.82968,0.565341 -0.56949,8.790162 -0.59119,-0.01809 z m 75.0321,0.232545 -0.0568,2.786394 -2.43139,5.302001 -0.31679,0.05995 -4.35371,-7.446057 z m -8.88627,0.125574 0.50901,0.47284 4.67672,7.997444 -2.29754,1.966806 -8.50802,2.14457 -2.85562,-2.617409 -0.3261,-6.958232 5.26738,-2.440678 z m -76.82426,0.01447 6.07095,1.663465 -3.63286,3.634404 -1.78438,-0.272336 -3.21892,-3.988903 z m 9.78596,0.0925 3.58791,9.126056 -2.30375,1.196827 -7.65432,-4.681884 3.93671,-3.938262 z m 30.00179,0.370002 0.99219,4.580082 -7.27345,5.877161 -2.81328,1.378728 -1.00976,-0.417029 1.70791,-10.547678 z m 69.49033,0.166915 6.74947,0.783415 2.05774,1.885156 -1.67947,1.049549 -8.4832,1.26814 0.69194,-3.532084 z m -133.29417,0.182935 0.003,0.0016 -0.004,-5.16e-4 z m 54.97544,0.06356 v 0.001 h -0.001 z m 92.368,0.929661 h 0.002 v 0.001 z m 10.2526,0.439767 -1.68259,12.093318 -9.3436,-10.991577 0.99116,-1.043348 z m -36.05516,0.856795 5.2e-4,5.16e-4 h -10e-4 z m -11.05411,0.16433 10.61021,0.150894 1.78491,8.633582 -0.0444,0.04599 -9.78958,-2.085144 -4.78679,-1.890323 z m -110.65732,0.497128 11.58793,2.369362 0.0176,5.208469 -8.64341,2.622063 -8.77105,-4.169254 -0.0506,-0.07597 z m 143.22742,0.117822 1.91463,0.09767 -1.42782,12.643673 -4.9816,-6.227011 2.42879,-5.225521 z m 2.89804,0.286803 9.84538,11.582238 0.29559,1.117761 -4.54649,4.059185 -4.12689,1.400432 -2.5399,-0.06305 -0.47437,-4.384747 z m -164.26543,0.853178 2.48873,5.179528 -8.89352,7.77472 c 1.8543,-4.476871 3.99685,-8.80261 6.40479,-12.954248 z m 158.06372,0.436149 -2.14301,4.615223 -7.96333,3.144512 -3.80804,-1.362192 5.69886,-5.169193 z m -127.83663,0.265618 0.002,0.001 h -0.003 z m 53.32542,0.244946 2.01538,2.953308 -7.56285,1.529104 z m -40.48072,0.08268 1.6924,0.258382 7.91838,4.842081 -1.96888,3.129008 -8.10286,-0.19327 -1.18184,-2.325439 z m 56.50611,1.882056 7.10345,3.122805 -3.12282,2.099099 c -1.30816,-0.255672 -2.6356,-0.459386 -3.98063,-0.606166 z m 25.39947,0.631486 5.3e-4,0.0016 -10e-4,-10e-4 z m 0.86817,0.345199 4.67879,1.847432 -4.16512,8.623763 -3.48248,-8.356597 2.32492,-1.992643 z m -67.16387,0.703832 h 5.3e-4 l -5.3e-4,10e-4 z m 132.21211,0.01964 0.002,0.0016 v 0.001 z m -100.60937,0.110072 0.11419,0.201538 v 2.516124 c -0.0922,0.008 -0.18386,0.01835 -0.27593,0.02687 l 0.14779,-2.738335 z m -3.61167,0.0041 2.58744,0.140044 -0.14624,2.704227 c -1.38528,0.15776 -2.75227,0.374406 -4.09847,0.648022 z m -30.22915,0.211873 1.25315,0.03824 0.81597,0.09922 4.08863,2.460834 -4.5558,8.396385 -6.54585,-5.622396 -0.0114,-0.404627 2.23811,-3.55637 z m 29.01836,0.0041 -1.68206,3.546036 c -2.30775,0.53354 -4.55078,1.233699 -6.71536,2.088761 l -3.12021,-2.638597 2.31873,-1.135848 z m 105.53155,0.20102 0.82735,0.165365 c 1.0309,2.031891 1.99994,4.100893 2.90523,6.203756 l -0.1421,0.04909 -5.80171,-2.435511 0.70279,-3.032373 z m -179.55233,0.09767 0.0517,0.07803 0.0243,9.817486 -5.01624,5.336109 -4.33927,2.215885 -7.95403,-8.940538 9.10021,-7.954036 z m -8.33594,0.06563 v 0.0016 l -5.3e-4,-0.001 z m 106.95522,0.416513 2.84377,2.606042 0.15451,2.603458 -0.11731,0.07235 c -2.56397,-1.086644 -5.24399,-1.955396 -8.01862,-2.582789 l 3.01582,-2.027266 z m 78.98331,0.05788 5e-4,5.16e-4 h -10e-4 z m -66.77009,0.07597 0.002,0.0021 h -0.001 z m -109.77935,0.101285 8.11268,3.854545 0.95758,6.422864 -0.28112,1.637109 -3.58326,0.89607 -5.18313,-3.690731 z m 118.99222,0.08268 9.21237,1.962156 -0.91779,3.540868 -1.24642,2.707328 -7.10552,8.940022 -1.6092,-0.08733 C 276.46683,4.156666 275.84289,3.49442 275.19964,2.851636 l -1.09916,-5.473052 z m 24.64345,0.0052 5.60433,7.007325 0.47437,4.386813 -0.70848,0.355015 -12.49794,-8.936405 z m -34.14985,0.403076 3.86281,9.273852 0.83976,4.179592 c -3.66606,-3.402267 -7.87304,-6.230332 -12.48246,-8.344194 l -0.12919,-0.441317 -0.15605,-2.638081 z m 21.21371,0.574125 10e-4,0.001 -5.3e-4,0.0026 z m -112.40556,0.01964 9.79424,0.239263 1.16118,2.285648 -2.54767,5.437394 -6.77839,-2.539897 z m -0.95652,0.296622 1.51567,5.038453 -8.87233,3.186369 -0.85317,-5.734016 z m 113.30678,0.194821 4.59145,1.643311 13.02245,9.312092 -3.06388,4.186309 -1.07487,0.993738 -15.79284,-12.149129 0.94154,-3.642672 0.20619,-0.212389 z m -71.68091,0.179318 1.31363,0.542603 3.2494,2.747634 c -2.75331,1.164431 -5.37351,2.579561 -7.83103,4.219382 l 0.74414,-6.416146 z m -7.92766,0.207738 4.39042,0.936895 -0.8258,7.119977 c -1.59281,1.128612 -3.11298,2.35259 -4.55165,3.664895 l -3.77084,-0.763778 -0.0775,-2.046904 z m 49.86155,0.173633 v 10e-4 h -0.001 z m -92.32823,1.381313 5.3e-4,5.16e-4 -5.3e-4,5.16e-4 z m 167.2668,0.544668 5.94693,2.495455 1.52136,1.578197 c 1.19255,2.978952 2.25882,6.022639 3.1905,9.125027 l -1.46505,0.799433 -9.82885,-4.048331 -1.23404,-7.918381 z m -145.71668,0.04393 7.88477,0.189651 0.006,0.230479 -3.01792,10.693921 -2.05568,-0.291973 -3.39719,-2.80448 -1.46659,-1.271757 -0.56224,-1.17719 z m 8.39327,0.480074 -10e-4,0.001 -0.003,-5.18e-4 z m 62.57243,0.655256 -0.004,10e-4 -5e-4,-5.19e-4 z m -62.30422,0.237196 6.42287,5.514391 0.0806,2.091862 -5.70974,4.17649 -3.56775,-1.575099 -0.0858,-0.07597 z m 88.977,0.277501 h 0.002 v 5.18e-4 z m 54.31504,0.380338 5e-4,10e-4 -0.002,0.001 z m -9.0651,0.300757 1.2206,7.830013 -1.21542,2.025201 -4.69585,3.299539 -1.06349,0.244946 -8.91315,-9.417513 4.32636,-3.864361 z m -45.05667,0.09715 15.50448,11.927438 -1.01028,1.364773 -2.67529,1.334802 -12.69947,-12.713435 z m -108.37478,0.374655 -5.1e-4,0.001 -5.3e-4,-5.16e-4 z m -0.73586,0.577742 -0.73951,2.091862 -7.66257,3.188435 -0.67284,-0.627351 0.25374,-1.48518 z m 1.03661,0.06925 6.71536,2.517675 0.45061,0.943612 -7.23262,5.719549 -0.75914,-0.01654 -0.0506,-6.68383 z m -39.27512,0.665076 0.16589,0.0098 8.29924,9.327079 0.0419,0.467672 -1.50845,3.153812 -8.01449,6.891052 -4.37338,-2.114598 c 1.3021,-6.118646 3.11367,-12.045561 5.38933,-17.734835 z m 145.91048,1.085204 12.4292,12.440068 -9.42319,8.276497 -9.71465,-12.27677 z m -126.92456,0.730705 4.91288,3.497977 -1.51929,4.036965 -7.78917,-2.859257 z m 9.98855,0.243396 5e-4,0.0015 -0.004,-0.001 z m 8.42946,0.421163 0.0465,6.244064 -1.45934,0.982884 -1.79575,0.722953 -1.22007,-0.788064 -2.5213,-4.270023 z m 139.47312,0.263033 8.96019,9.466606 -3.21789,4.447273 -3.36621,0.2682 -5.86166,-13.000757 z m -7.23106,0.80822 h 0.002 l -5.3e-4,0.0021 z m -122.5977,0.03824 0.82166,0.712103 -5.91799,5.763471 -1.71204,-1.09089 z m 125.66157,0.03669 5.3e-4,0.0026 h -10e-4 z m -2.95071,0.427366 2.62567,0.06718 5.95572,13.214697 -2.28047,2.198833 -10.43763,-10.750764 3.067,-4.193543 z m -141.27459,0.595828 0.85215,0.797883 2.52801,4.281911 -6.76185,2.418974 -1.88362,-2.190565 1.65883,-4.40645 z m 20.15226,0.302308 2.72335,2.247924 -5.89163,5.329906 -2.67269,-1.890839 z m -18.90684,0.179316 5.1e-4,10e-4 -0.004,0.0016 z m 35.58024,0.512114 3.24168,0.657842 c -2.05833,1.97712 -3.93983,4.137464 -5.61517,6.458518 L 200.04503,5.660806 Z M 334.49678,2.05689 h 10e-4 l -5.3e-4,5.19e-4 z m 0.20826,0.625803 9.49399,3.910873 -1.75028,5.915916 -1.41697,2.551266 -3.62408,-1.935281 -3.71605,-8.753989 z m -180.61586,0.474906 8.05532,2.956409 -5.35728,4.41265 -6.94378,-4.990394 -0.0186,-0.204637 z m 38.54649,0.465087 2.24895,0.318844 0.0119,0.01085 -3.38841,9.605097 -5.50923,-1.774053 0.32866,-2.453597 z m 3.13624,0.856795 3.25511,1.43609 0.0506,0.09095 -3.84008,13.454991 -2.87425,-5.322154 z M 178.30218,4.89961 v 0.0026 l -0.002,-0.0021 z m 1.42473,0.03049 5e-4,5.16e-4 -5e-4,5.16e-4 z m -30.42968,0.110588 5.1e-4,10e-4 h -0.002 z m 183.61568,0.05581 3.3946,7.998997 -3.77547,0.640786 -3.58997,-5.848739 z m -154.46243,0.306959 1.12501,0.0248 2.50113,1.592152 3.24321,2.29495 -0.34623,2.59674 -0.98856,1.092441 -0.93586,-0.368972 -5.72111,-6.477122 z m 126.84757,0.03669 10.4929,10.805544 -3.60082,7.132896 -0.21238,0.01654 -8.85994,-15.448668 1.1498,-1.555461 z m -27.31151,0.448035 0.67385,0.03669 10.03556,12.680362 -0.0227,1.084173 -1.9508,1.867585 c -1.90838,-5.802056 -4.89841,-11.104189 -8.73588,-15.66881 z m -114.96664,0.01395 0.001,5.16e-4 h -0.001 z m 183.5118,0.02997 c 0.66902,2.306474 1.26248,4.644956 1.78128,7.011974 l -4.75525,-0.657841 1.66862,-5.642033 z m -183.49008,0.09198 h 0.001 l -0.001,5.18e-4 z m 181.7646,0.278019 10e-4,0.0015 -0.002,-5.16e-4 z m -171.91508,0.160715 1.0728,0.694532 -0.47024,5.22397 -0.45993,1.056264 -7.25847,-3.854026 0.0134,-0.582393 z m -23.33242,0.10077 6.86573,4.931481 3.18069,5.793959 -1.51464,5.076693 -3.91604,1.672251 -5.87666,-14.837338 z m 26.87691,0.0956 5.14387,5.821868 -7.05073,-0.439767 0.43045,-4.788339 z m -13.45449,0.06253 1.81126,2.104265 -0.0217,0.938443 -2.64377,5.575887 -1.80504,1.17719 -2.87528,-5.237925 z m 36.89077,0.142626 2.83136,2.631882 c -2.78175,4.031991 -4.95419,8.521171 -6.38979,13.336653 l -0.006,0.0021 -0.41238,-2.037601 z m 128.39682,0.882118 10e-4,0.0016 h -10e-4 z m -0.23667,0.569474 3.65299,5.951058 -3.12898,4.427635 -1.04749,-0.529166 -3.65559,-5.114415 3.27679,-4.527372 z m -25.70903,0.254764 8.6987,15.168068 -9.03409,5.295799 -12.31397,-9.368935 0.0212,-0.998906 10.00972,-8.790677 z m -154.7766,1.449009 5.75676,14.533997 -3.15691,2.734714 -6.73499,-1.370975 -3.41427,-9.409245 z m 17.94981,0.54932 6.92981,3.677812 -0.69659,1.118277 -8.42844,-0.168465 z m 19.95072,1.561145 0.002,5.16e-4 -5e-4,0.001 z m 0.15502,0.575675 5.87304,1.892909 3.42924,6.347415 0.39584,1.954403 -9.48365,-1.29398 -1.9327,-3.346563 0.70848,-4.439007 z m -11.30059,0.322977 8.3416,0.520383 0.92295,0.364836 -0.62736,3.920689 -2.10013,-0.104386 -6.77632,-4.152202 z m 148.9351,0.01861 10e-4,5.16e-4 -5.3e-4,5.15e-4 z m 19.94916,0.196368 5.35058,0.742074 c 0.76661,3.668792 1.35049,7.4055 1.74046,11.20035 l -8.35763,-8.197948 -0.17002,-1.161172 z m -23.89569,0.119891 5e-4,0.001 -10e-4,-5.16e-4 z m 17.72708,0.119888 -0.001,0.0015 v -10e-4 z m -14.02241,0.08578 3.45612,4.836914 -10.95436,6.639388 -2.3301,-1.381826 3.63958,-7.211965 2.70216,-2.603458 z m 13.93558,0.435634 3.84111,2.051036 0.13748,0.938443 -8.69302,6.051828 -0.47696,0.0124 -2.41951,-3.711403 3.25355,-4.603338 z m -163.79672,0.05116 0.002,0.0026 -0.003,-0.0016 z m 0.37053,0.351398 6.24871,3.82974 -2.05877,1.341004 -3.14815,-0.03049 -1.97971,-1.569413 -0.0579,-1.973005 z m -38.75577,0.247531 4.26071,2.060855 3.42305,9.433534 -7.9928,5.274095 h -1.76524 c 0.26529,-5.716878 0.968,-11.317266 2.07428,-16.768484 z m 206.48197,1.077971 0.002,5.16e-4 -0.002,5.15e-4 z m -178.56946,0.451133 8.85735,0.177252 0.0501,1.721339 -4.71496,7.249171 -2.47271,-0.239779 -5.27772,-2.619994 1.46917,-4.923732 z m 178.73276,1.69137 9.03044,8.857339 c 0.10535,1.189951 0.19235,2.385129 0.25942,3.58583 l -3.668,1.104841 h -4.51548 l -9.30331,-7.842932 z m -158.03174,0.480658 h 10e-4 l -10e-4,0.001 z m 143.81086,0.196887 -10e-4,0.0021 -5e-4,-10e-4 z m -146.34919,0.1788 2.24017,0.109553 1.82986,3.168282 -4.34962,4.982126 -2.42774,0.274918 0.21601,-6.911721 z m -8.6305,0.226343 1.75339,1.390094 2.45565,7.217132 -4.88598,0.904854 -3.73261,-2.736268 z m 154.99934,0.167947 1.17512,0.593246 2.50164,3.837493 -3.13418,4.509285 -2.32955,2.926953 -6.00688,-1.992127 -3.1073,-3.266985 z m -152.82013,0.920358 v 0.001 l -0.001,5.16e-4 z m 3.46904,0.03204 5.2e-4,0.001 h -5.2e-4 z m -2.76831,0.47439 2.25102,0.0217 -0.18862,6.044594 z m 114.13204,0.01188 12.23957,9.314162 -0.0434,1.544608 h -12.56305 c -0.31941,-3.02982 -0.92289,-5.97249 -1.78025,-8.802563 z m -103.50013,2.037085 9.72137,1.324468 -0.0134,1.698603 -1.19838,5.798614 h -9.85935 L 181.4343,27.49364 Z m -27.20195,0.130226 h 0.001 l -5.2e-4,0.001 z m -0.015,0.551389 5.21158,2.588471 -0.67903,5.551599 h -11.2572 l -0.9126,-3.422531 3.31711,-2.871658 z m 37.44113,0.207737 0.001,5.16e-4 h -0.001 z m 136.27074,0.556038 8.75038,7.376295 h -2.50889 l -9.52706,-3.303675 2.82358,-4.060732 z m -19.80912,0.320395 2.79466,1.655196 3.33881,3.509865 -0.87178,1.890839 h -15.2528 l 0.0424,-1.494999 9.41236,-5.520076 z m -147.71552,1.75855 2.24586,0.21549 3.93825,2.887162 -0.29457,2.194698 h -6.53756 z m -21.53616,0.754475 6.74428,1.375109 0.84596,3.167766 h -14.4756 z m 34.45785,0.946711 h 0.001 l 5.1e-4,0.0057 z m 2.96622,0.168984 2.54765,3.42718 h -5.04 l -0.38137,-3.102136 z m 147.54603,0.367419 0.0186,0.01292 -5e-4,0.001 z m -151.40212,0.161748 0.35502,2.898013 h -5.48907 l 0.2682,-1.997811 z m 151.59125,0.439764 7.08795,2.458249 h -9.04338 z m -26.34774,0.670245 v 0.001 l -5e-4,-5.16e-4 z m 17.43771,0.413412 4.1398,1.374592 h -4.77388 z m 31.34847,1.298111 c 0.001,0.02553 0.003,0.05095 0.004,0.07648 h -0.25721 z M 132.21142,40.70834 a 0.50005001,0.50005001 0 0 0 -0.49816,0.52193 c 2.56805,57.482176 48.91344,103.33393 106.41986,105.28505 a 0.50005001,0.50005001 0 0 0 0.51779,-0.50023 V 83.16001 a 0.50005001,0.50005001 0 0 0 -0.46096,-0.49816 C 215.8266,80.927451 197.90026,63.466059 195.58016,41.155856 a 0.50005001,0.50005001 0 0 0 -0.4961,-0.447516 z m 156.21682,0 a 0.50005001,0.50005001 0 0 0 -0.49815,0.447516 c -2.28595,21.946407 -19.68963,39.252368 -41.64862,41.414009 a 0.50005001,0.50005001 0 0 0 -0.45114,0.496094 V 145.9138 a 0.50005001,0.50005001 0 0 0 0.52141,0.49971 c 57.10433,-2.42113 102.90088,-48.08612 105.4866,-105.18324 a 0.50005001,0.50005001 0 0 0 -0.50025,-0.52193 z m -155.58431,1.000455 h 9.725 l 1.85777,8.301818 -1.28468,-0.01292 z m 10.75079,0 h 4.41574 l -1.3684,8.564851 -1.17409,-0.193786 z m 5.42859,0 h 6.3991 l -0.54983,5.494237 -1.96011,2.363682 -5.08288,1.180288 -0.22842,-0.144693 z m 7.40473,0 h 7.67189 l 1.28362,0.614432 -9.44335,4.26589 z m 9.9844,0 h 2.1332 l 0.002,0.03669 -1.87844,0.0863 z m 3.13364,0 h 8.13697 l -0.34726,0.317294 -7.7778,-0.106455 z m 9.61856,0 h 9.09452 l -3.43648,10.540958 -1.51361,-0.824238 -5.14799,-8.799981 z m 10.14667,0 h 1.55802 l 4.26331,10.609689 0.0775,0.794266 -6.85334,2.517158 -0.71416,-0.08681 -1.97662,-2.658237 z m 2.63601,0 h 2.72696 c 0.26519,2.330644 0.69921,4.607219 1.28571,6.819739 l -0.46458,2.006079 z m 96.89071,0 h 12.01169 l -5.66995,3.775996 -6.35,-3.70985 c 0.003,-0.02212 0.006,-0.04402 0.008,-0.06615 z m 13.81363,0 h 0.13282 l 4.94543,2.828767 -0.67024,9.520351 -13.19765,3.852995 -2.14146,-0.638723 -0.0258,-0.02429 3.91758,-10.849467 z m 2.14561,0 h 8.02328 l -3.44527,2.011246 -1.00148,0.03411 z m 20.70209,0 h 8.33956 l -2.26603,5.59139 -5.82445,3.312459 -0.56018,-8.491988 z m 9.41959,0 h 2.58072 l 0.64958,1.373042 -2.79416,6.157246 -2.76416,-1.786453 z m 3.68503,0 h 12.18531 c -0.13809,2.757588 -0.37907,5.487223 -0.71676,8.186579 l -3.24786,0.718304 -7.71168,-7.826912 z m -25.27596,0.282152 0.002,5.19e-4 v 0.0026 z m 10.88099,0.478525 0.58859,8.918835 -0.32919,1.158586 -6.28952,-1.626774 -7.79954,-6.627503 3.08456,-1.80144 z m -155.48044,0.269233 -0.11575,2.26963 -7.33856,8.62738 -7.30293,-3.779097 1.69551,-2.04742 11.02156,-4.977992 z m 119.96426,0.114207 5.8942,3.4432 -3.83284,10.615372 -6.47194,0.512114 -0.0744,-0.01034 c 2.22845,-4.490863 3.76931,-9.389139 4.48501,-14.560351 z m -118.9726,0.06924 7.51584,0.102838 4.92167,8.413438 -6.70399,1.273826 -3.27215,-1.319816 -2.57194,-6.274554 z m -36.88921,0.05995 9.34569,7.522019 -7.59645,6.424933 c -0.87043,-4.553704 -1.46029,-9.208601 -1.74924,-13.946952 z m 206.02308,0.966864 7.09726,7.203696 -3.10835,2.983281 -5.70715,1.018024 -1.04282,-5.121135 z m -30.60277,0.309025 v 0.0016 h -10e-4 z m 1.09037,0.465088 7.92406,6.731888 -4.89892,6.628022 -3.46284,-2.006082 -0.86249,-1.73736 0.67747,-9.595797 z m -140.38937,1.429887 2.28926,5.584156 -3.04581,5.064807 -4.86015,0.205672 -1.34102,-2.674771 z m 163.00297,2.080493 3.16674,2.045869 1.06296,5.222939 -1.47277,0.978233 -4.73459,0.134877 -3.47678,-0.644406 -1.15652,-2.845821 0.38396,-1.350304 z m -135.42688,2.265495 c 0.21024,0.673692 0.43498,1.340776 0.67387,2.000911 l -0.78393,0.558107 -0.21291,-0.03669 -0.077,-0.795819 z m -43.4051,0.04651 7.9003,4.084505 1.46605,2.922821 -2.28253,6.206855 -4.70464,0.347265 -2.70319,-0.347265 -3.18894,-3.537768 -1.30795,-8.557617 z M 147.056,50.84829 h 0.002 l -0.002,0.0031 z m 202.88011,0.101286 c -0.59631,4.418949 -1.45629,8.752937 -2.56211,12.986287 l -1.74565,-0.157613 -1.99935,-9.011854 3.28094,-3.147612 z m -206.79512,0.04806 1.86499,0.01912 1.86759,0.307994 0.40566,0.257865 1.31725,8.619628 -11.40912,7.408849 c -0.93374,-3.129418 -1.73101,-6.31861 -2.38591,-9.560139 z m 174.80327,0.378273 v 10e-4 l -10e-4,-5.16e-4 z m 0.19947,0.569473 6.30248,1.629876 1.1348,2.790526 -6.90655,11.197248 -5.56866,-8.802563 z m -135.27804,0.376206 1.90894,1.041278 1.96162,2.636533 -2.58588,3.152778 -8.61809,1.727025 0.35089,-7.230565 z m -10.85877,0.0801 2.87838,1.160653 -0.37206,7.668265 -1.01494,0.725538 -4.39198,-4.730978 z m 13.1036,0.57309 5.3e-4,5.19e-4 -0.002,0.001 z m 139.70412,0.178803 0.002,5.16e-4 -0.002,10e-4 z M 197.56453,53.46829 c 0.0975,0.251986 0.19759,0.502565 0.29922,0.752408 l -0.55861,-0.567407 z m -1.77249,0.497128 0.50125,0.08526 2.71251,2.755387 c 0.0755,0.157816 0.15123,0.315495 0.22841,0.472324 l 3.43337,8.684225 -6.43628,3.707265 -7.10242,-13.257588 z m -34.3948,0.295071 10e-4,5.16e-4 -10e-4,5.19e-4 z m 181.68244,0.340548 5.3e-4,0.001 h -5.3e-4 z m -35.80816,0.435631 0.67697,1.368393 -4.87463,7.661548 -8.05429,-5.452899 z m 35.42422,0.141079 1.97247,8.894545 -0.88056,0.820105 -5.96088,-0.66249 -2.36265,-7.050217 1.46865,-0.973582 z m -155.11251,1.366324 0.51573,0.06149 7.36544,13.750581 -1.87946,3.367238 -7.95663,-0.315743 -1.83089,-2.607593 1.1095,-10.994678 z m 138.80341,0.422195 3.1378,0.581361 2.68097,11.170378 -12.39563,-1.092441 z m -17.69917,0.141595 3.45458,2.000911 5.84976,9.246463 -0.85421,1.54306 -0.0837,0.01395 -8.79792,-0.533302 -3.30729,-2.289265 -1.15496,-2.29185 z m 25.82426,0.378788 2.39003,7.125663 -3.13986,4.496366 -0.48162,-0.197403 -2.71508,-11.313522 z m -43.05009,0.227893 v 0.0016 l -10e-4,5.16e-4 z m -123.18677,0.08578 4.60176,4.954219 -1.36734,5.054987 -3.92276,2.947109 -6.44303,-6.64404 2.24327,-6.10557 z m 122.65451,0.10025 0.0527,0.05064 0.85474,8.75347 -5.95882,8.07186 -1.07331,-16.389699 z m 1.10122,0.507979 1.61541,0.482658 9.1829,6.218743 1.06402,2.107883 -3.04168,1.624705 -5.29632,0.785998 -2.71973,-2.993099 z m -8.21706,0.124024 1.07796,16.474963 -8.64547,-6.160862 c 2.80199,-2.974832 5.22431,-6.312025 7.18767,-9.938412 z m -99.95464,1.697571 -1.01854,10.080522 -10.27792,-2.566252 1.30432,-4.82296 1.33792,-0.956532 z m -34.80715,0.867649 2.9259,3.243728 -3.64369,9.850561 -8.90386,0.131258 c -0.69779,-1.881458 -1.3457,-3.787273 -1.94149,-5.716445 z m 53.52333,1.912543 c 0.57269,0.84142 1.17113,1.663385 1.79525,2.464451 l -0.71728,0.237709 -0.0103,-10e-4 z m -42.20723,1.740463 6.63162,6.836275 -0.95033,5.487003 -8.18658,-1.012859 -1.79678,-10.99416 z m 185.02849,0.01085 1.7172,0.155546 c -0.81534,3.006211 -1.75601,5.960255 -2.8148,8.856824 l -0.60153,-0.986502 0.74261,-7.136516 z m -192.51485,0.0155 2.16987,0.280602 1.80248,11.022068 -5.17901,0.652671 -2.40451,-2.187461 z m 184.81402,0.444416 5.71749,0.633555 -0.66765,6.421313 -8.00314,-2.037085 -0.22376,-0.469739 z m -133.98717,0.996323 0.001,0.0021 h -0.001 z m 1.32602,0.08992 c 1.85597,2.274967 3.91879,4.3722 6.15984,6.265251 l -0.78084,5.755722 -1.05005,-0.510048 -4.97541,-11.296467 z m -1.65675,0.40101 4.85812,11.031884 -11.65666,0.855245 -2.14302,-4.34702 1.96784,-3.524334 z m 89.01576,0.925526 2.47168,2.722314 0.03,9.549804 -2.42467,0.998905 -6.09573,-5.117517 z m 12.13207,0.378269 2.86753,1.984894 -6.97529,10.211263 -3.37963,-0.416513 4.36409,-10.108427 z m -132.57948,0.09199 0.002,5.16e-4 -5.1e-4,0.001 z m 147.15897,0.462505 13.62861,1.20096 0.83923,0.343649 0.29404,0.614431 -2.10582,9.961666 -5.55832,0.03876 -6.71586,-7.146335 -1.46865,-3.208588 0.94051,-1.696538 z m -147.04787,0.08165 10.92232,2.725931 1.77249,2.52181 -6.67038,9.496578 -4.57441,0.813903 -4.37232,-1.005104 -2.15646,-5.621364 1.01542,-5.877676 z m 160.79533,0.627351 h 5.3e-4 l -5.3e-4,0.0031 z m -57.30708,0.299207 8.77104,6.250265 -7.07607,5.424993 -2.07065,-0.09715 -1.21698,-10.031428 c 0.5429,-0.503089 1.07389,-1.01886 1.59266,-1.546677 z m 24.65223,0.374655 -4.21782,9.76943 -0.0858,0.0031 -0.0279,-9.130194 z m 8.14266,0.435631 7.7551,0.470257 -8.27238,10.423136 -3.24115,2.161109 -3.25665,-2.787428 z m -125.05904,0.54932 5.3e-4,5.19e-4 -0.002,10e-4 z m 133.94325,0.106455 1.29243,2.819982 -2.75124,5.849255 -3.37862,2.366264 -3.33261,-0.742074 z m 17.54933,0.236162 8.0884,2.059821 0.99269,1.628841 c -0.94732,2.5004 -1.98189,4.95763 -3.10317,7.36596 l -3.64784,1.062466 -0.31885,0.0036 -4.05505,-2.457214 z m -61.72853,0.666107 1.08365,8.944673 -10.18749,-2.653583 c 3.28404,-1.742204 6.33778,-3.857214 9.10384,-6.29109 z m -60.94307,1.377696 c 2.84409,2.28427 5.95712,4.245927 9.28524,5.8322 l -1.81126,1.531173 -4.05246,1.996262 -4.17547,-3.794601 z m -26.48778,1.087787 7.9406,0.313161 2.22107,4.504634 -0.1478,3.767727 -0.37105,1.646413 -10.87324,2.748668 -5.31389,-3.664891 z m -36.93057,0.278019 0.001,5.18e-4 -0.001,5.16e-4 z m 170.5219,0.05529 6.19188,6.589778 -3.75018,8.709031 -6.62027,3.826639 1.6211,-13.680821 z m -170.71258,0.448035 2.50632,2.27893 -0.48834,10.361642 -2.03605,1.549775 -2.80501,-1.264523 c -2.218,-4.113477 -4.17933,-8.386813 -5.86475,-12.798184 z m 136.89086,1.112594 0.0713,0.01964 6.34637,5.329388 -0.49609,1.559597 -4.09845,4.166153 -4.34909,0.800468 -4.7625,-6.32623 7.23625,-5.546947 z m -127.95445,0.208256 h 5.3e-4 l -5.3e-4,0.0041 z m 0.002,0.503843 8.66976,1.072288 2.08772,5.438944 -4.0685,4.588867 -12.59665,-0.507463 0.46664,-9.906889 z m 51.45111,1.681552 1.65365,0.802018 4.29741,3.907771 -0.80356,1.788007 -17.38551,-2.57452 0.11938,-3.03444 z m 53.59104,0.284736 -1.77197,4.977474 -4.62349,-2.424141 c 2.20679,-0.699506 4.34293,-1.554475 6.39546,-2.553333 z m 1.002,0.1664 10.62572,2.768306 -3.00704,6.441466 -8.34835,2.2841 -1.42367,-0.0098 0.15452,-5.871477 z m -41.08638,0.468704 c 1.8773,0.841544 3.81916,1.565253 5.81671,2.161108 l 5.62755,7.614007 -5.55831,4.122746 -7.76489,-12.308811 z m 73.0064,0.623218 h 10e-4 v 0.0031 z m 0.88625,0.468706 4.16565,0.51108 3.67419,3.142443 4.44728,12.29279 -1.68413,0.384472 -10.20868,-6.154145 -4.38632,-7.465695 0.49766,-1.563727 2.71663,-1.118796 z m 4.3765,0.03256 0.001,5.18e-4 -0.001,0.0016 z m 14.87659,0.353467 -1.59422,13.454994 -1.05627,0.927592 0.10388,-12.6013 z m 10.45157,0.13281 v 10e-4 l -5.3e-4,-5.16e-4 z m 6.04303,0.458886 3.99304,2.421041 -4.15634,10.175089 -1.0392,-0.03669 -8.14007,-4.089157 3.62924,-8.430492 z m -112.35748,0.06511 7.89255,12.510865 -2.76262,5.431192 -1.86036,0.619596 -10.203,-7.18612 2.06552,-7.216095 1.01751,-2.262394 z m 35.03663,0.195337 5.76244,3.022039 -0.15452,5.945372 -2.29856,2.302188 -9.80922,-9.907924 c 2.21996,-0.305646 4.39029,-0.762569 6.49986,-1.361675 z m 20.38583,0.205158 2.04742,0.09457 4.87929,6.481773 -3.70932,4.955254 -6.24407,-5.047752 z m 33.17266,0.03307 3.72018,0.827854 -0.1106,13.374378 -0.55965,0.575675 -0.30128,0.05685 -1.39887,-0.410829 -4.46794,-12.344466 z m -78.49444,0.031 c 2.45438,0.64102 4.98647,1.090997 7.57939,1.334286 l -0.0961,5.858042 -2.4469,-0.375687 z m -14.33401,1.06402 5.3e-4,0.0016 -10e-4,-5.18e-4 z m 31.51539,0.185518 10.28259,10.383345 -4.26022,2.237073 -6.14587,-5.518526 V 83.47989 c 0.0413,-0.0045 0.0822,-0.0099 0.1235,-0.01447 z m 44.79055,0.01344 h 0.001 l -5e-4,5.16e-4 z m 48.43528,0.06201 c -0.46754,0.972749 -0.95072,1.936941 -1.44589,2.893362 l -0.88628,-2.214335 z m -143.66615,0.07131 17.17932,2.541963 -1.95752,6.836791 -2.49391,1.330669 -11.86696,-6.451285 -1.17565,-2.862876 z m 140.13354,0.286287 5.3e-4,0.0031 -0.002,-5.18e-4 z m -167.70603,0.284737 4.14858,0.953431 1.91101,7.445023 0.44079,7.998482 -0.0729,0.35501 -1.34049,0.59015 -9.47435,-8.181414 0.2718,-4.516522 z m 122.70361,0.111104 4.0127,6.835243 -3.2303,2.626196 -0.601,-0.129191 -3.38841,-3.924826 -0.43151,-1.711005 z m -113.38634,0.0832 5.58157,3.850928 1.1126,5.274615 -3.01379,1.119311 -6.01824,-2.479952 -1.80401,-7.028511 z m 158.65438,0.194305 1.21079,3.025137 c -1.44474,2.709886 -2.99953,5.351772 -4.65966,7.918897 l -0.68834,-0.813387 z m -141.53346,1.068668 1.05109,2.564185 -5.76607,11.726931 -4.66688,-6.317958 -1.12138,-5.318022 z m 18.95182,0.103354 0.005,0.0021 -0.005,-0.001 z m -63.33207,2.341459 0.001,5.16e-4 v 0.001 z m 136.0842,0.331245 0.38965,1.546159 -1.5689,9.534819 -4.54752,2.354383 -2.15699,-1.74822 -0.28991,-5.552631 4.01786,-5.367631 z m -135.92243,0.176218 12.64676,0.51108 -0.26149,4.31033 -3.22201,5.606893 -4.10623,5.10718 c -2.66184,-3.35853 -5.1312,-6.876851 -7.38971,-10.540441 l 0.19791,-3.369302 z m 131.48447,0.133324 5e-4,0.0016 -10e-4,-0.001 z m -11.19725,0.05219 10e-4,5.16e-4 -5.3e-4,0.001 z m -74.25025,0.131773 11.3471,6.172234 -0.21135,0.358117 -10.84326,6.261635 -6.02083,0.81649 -0.2036,-1.54513 z m 74.13656,0.418581 6.57738,5.317504 0.27544,5.278747 -2.25568,0.340544 -11.99515,-8.912113 z m -124.86163,0.247529 1.54873,0.698148 -0.10593,1.803508 c -0.49149,-0.826915 -0.97267,-1.660763 -1.4428,-2.501656 z m 91.03217,0.375687 5.3e-4,5.19e-4 -0.001,5.15e-4 z m -88.96512,0.0078 10e-4,10e-4 h -0.002 z m 86.12188,0.06201 2.47943,0.380855 0.51004,1.343586 v 12.616758 l -11.79978,-4.527372 2.67838,-5.265312 z m 87.39571,0.938959 7.84241,3.939812 -7.84657,9.033558 -9.71515,-6.588228 0.38653,-0.398426 1.97715,-1.734777 z m -33.75404,0.114723 2.58435,2.99465 -3.75171,4.104658 z m -27.28772,0.555003 1.63089,0.01085 12.2246,9.081614 -9.82215,5.25911 -6.48229,-11.900562 z m 35.33532,0.225312 9.49552,5.724197 -5.09323,3.194125 -2.79413,0.69763 -2.72489,-1.22112 -2.08825,-5.79034 z m -49.5205,0.05529 5.30923,4.767152 -3.54655,3.002401 -1.76268,0.435629 z m -71.33312,0.597379 -5.1e-4,10e-4 h -0.004 z m 0.5426,0.766363 4.96972,2.047936 -4.62295,4.217315 z m 9.49037,0.546219 -0.001,0.001 -5.1e-4,-5.19e-4 z m 26.59218,0.0956 10.16683,7.158221 -3.38275,12.85968 -8.99893,-0.0196 -0.18293,-0.6103 -0.52348,-17.368449 0.39791,-0.670758 z m 45.89333,0.0088 0.002,0.0021 -0.003,-10e-4 z m -0.0475,0.102836 10e-4,5.18e-4 -5e-4,5.16e-4 z m -93.79686,0.304892 8.89609,7.682213 -6.88226,-0.86557 -4.73925,-2.074814 z m 21.17908,0.08837 4.92165,6.659543 0.24907,1.89962 -1.82623,3.14503 -12.315,-5.1387 0.0222,-0.10749 5.78985,-5.283914 z m 106.38213,0.20774 0.44802,0.09715 1.91979,5.324223 -6.75257,-0.624252 z m -33.96692,0.07183 6.56291,12.048363 -0.59378,3.93309 -6.31123,4.82193 -7.96748,-15.24403 3.72536,-3.153298 z m -48.52625,0.189654 5.3e-4,0.001 -0.001,-5.18e-4 z m 121.68045,0.35915 1.03867,0.03669 0.93433,1.104326 c -2.01232,3.047399 -4.17439,5.986983 -6.47351,8.809803 l -2.23708,1.15238 -1.39216,-1.74253 z m -122.69743,1.4087 0.46871,15.513779 -10.21231,-9.88518 z m 44.67789,0.03152 0.001,0.0026 -0.002,-0.0021 z m 58.66413,0.735356 5e-4,5.16e-4 -5e-4,5.16e-4 z m -2.34715,0.106971 1.1162,0.327628 -4.50154,16.090494 -4.17441,-1.35806 -0.20309,-11.07684 5.53868,-3.473693 z m 2.4479,0.564306 10.12756,6.866766 1.7942,2.24741 0.24029,1.0573 c -2.68735,3.06319 -5.54305,5.97448 -8.55348,8.71936 z m -150.93444,1.210263 0.004,0.0021 -5.1e-4,0.001 z m 150.18308,0.18965 3.34243,17.499703 -5.4932,0.86713 -2.05002,-3.35173 z m -150.03013,0.424265 4.80952,2.104778 3.90932,6.94428 -4.52633,5.04414 c -2.90483,-2.87096 -5.64888,-5.90447 -8.21862,-9.08524 z m 125.55151,0.426328 8.27133,0.76378 2.45205,1.09813 -7.12774,10.31926 -5.66063,0.80047 -0.1664,-0.13488 -2.3368,-10.48049 z m -61.29239,0.28732 12.50828,4.79971 v 2.40657 l -16.02949,8.09305 -1.76993,-1.66088 3.42564,-13.0173 z m 23.42441,0.0822 8.1127,15.52567 -0.81134,1.32912 -9.03819,3.02359 v -19.44901 z m 29.99973,0.16175 2.28049,1.84898 2.3063,10.34666 -10.11876,1.80609 -8.28786,-4.20543 0.55708,-3.69331 10.65411,-5.70715 z m -102.76271,0.41135 h 0.002 l -5.3e-4,10e-4 z m 0.006,0.54415 12.59199,5.25446 -5e-4,0.046 -2.85305,3.76566 -14.65027,-2.16266 3.1388,-5.8875 0.2336,-0.33796 z m 124.65079,0.0444 0.1969,10.73681 -5.44722,2.07429 -4.1429,-1.90273 7.14995,-10.34872 z m -102.80767,0.30437 0.001,0.001 -0.001,0.001 z m -30.68341,0.0739 5.85907,0.73639 -2.64943,4.96507 z m 6.64043,0.33073 0.007,0.005 -0.007,-0.004 z m 23.86987,0.12661 11.30628,10.94403 0.17415,0.58446 -5.97742,5.04311 -13.58056,-12.19977 0.004,-0.19172 1.94355,-3.34915 z m 126.56745,4.27157 5.3e-4,5.2e-4 -0.002,5.2e-4 z m 0.72451,0.19069 c -0.0443,0.0518 -0.0884,0.10379 -0.13282,0.15554 l -0.0176,-0.078 z m -135.80308,0.86403 13.28859,11.93726 -8.74882,6.50451 -9.62009,-9.52965 2.31151,-5.25756 z m 48.68177,0.92139 v 11.96361 l -13.75315,-0.6289 -1.69965,-3.53157 z m -67.32767,0.70228 14.72107,2.17351 -2.14768,4.88808 -8.55863,5.46478 c -2.97815,-2.34427 -5.83084,-4.84075 -8.54729,-7.47706 z m 93.87387,1.29243 0.003,5.2e-4 -5.3e-4,0.002 z m 0.0553,0.58963 8.13644,4.12895 -1.0573,5.19813 -14.41567,-2.78536 -0.10747,-0.13643 0.82373,-1.35082 z m 36.91194,1.4118 h 0.001 l -5e-4,0.001 z m 0.0139,0.5302 4.66485,1.51722 2.08309,3.40548 -5.07257,8.35763 c -0.38298,0.25915 -0.7675,0.51609 -1.15392,0.77049 l -5.8193,-12.03389 z m -10.93472,0.0202 4.57647,2.10116 6.03478,12.47935 c -0.94721,0.61112 -1.90458,1.20774 -2.87166,1.79007 l -4.17753,0.54983 -0.29456,-0.18758 -6.21565,-10.17922 -2.48563,-4.31344 -0.0661,-1.46296 z m -6.6249,0.49816 0.11678,0.0946 0.0754,1.68879 -6.80837,14.19861 -1.6552,1.14101 -4.21162,-1.10484 1.07953,-8.48526 1.16271,-5.70508 z m -74.08437,0.40618 v 0.002 l -10e-4,-10e-4 z m 0.17981,0.50178 9.3793,0.0207 2.03139,1.90479 1.93683,4.02404 -0.10181,0.74208 -1.56837,1.81901 -10.696,9.39477 -7.16597,-12.68708 z m 74.60372,0.97668 -0.002,0.001 -0.001,-5.2e-4 z m -27.06346,0.37052 5.3e-4,0.001 -10e-4,-5.2e-4 z m 27.10119,0.70125 1.95802,3.40082 -3.34812,9.43095 -4.77178,0.0233 z m -101.12973,0.73845 9.64798,9.55911 -2.28772,5.52938 c -5.42602,-2.88822 -10.57953,-6.21936 -15.41145,-9.94771 z m 130.88398,0.33125 c -2.94109,2.60587 -6.02377,5.05528 -9.2356,7.33547 l 3.94499,-6.50038 z m -5.59811,0.37621 5.3e-4,0.001 -0.002,-5.2e-4 z m -51.87175,0.13487 v 5.2e-4 l -0.005,0.004 z m -0.61185,0.0305 0.21082,0.26716 -5e-4,5.2e-4 7.5179,10.1384 -9.03357,8.92194 -1.95958,-0.017 -5.93296,-9.79838 v -6.43629 z m 1.77922,0.70486 13.3599,2.58124 -0.99788,7.83312 -5.46529,-1.11415 z m -54.87366,0.81598 0.002,5.1e-4 -0.001,5.2e-4 z m 83.97111,0.19223 -0.0419,0.0258 -0.002,-5.1e-4 z m -84.12613,0.54829 7.28533,12.90051 0.062,7.12617 c -6.49409,-1.96837 -12.73188,-4.52339 -18.65159,-7.6047 l 2.39935,-5.79965 z m 21.23176,0.46612 13.64051,0.6258 v 4.34082 l -9.57045,2.72645 -0.83614,-0.57258 -3.29335,-6.68383 z m 62.97136,0.1664 5.25446,8.60464 -8.21655,-0.25786 z m -63.66174,1.2516 2.96881,6.03012 -5.08032,9.48625 1.0201,-14.25133 z m -2.16421,2.24379 -0.99994,13.98881 -4.82918,3.34657 c -1.41046,-0.35209 -2.81006,-0.73122 -4.19819,-1.1374 l -0.0636,-7.33598 z m 16.4951,2.34404 v 5.60535 l -3.10936,4.23798 -5.69939,-7.33236 z m -10.62156,2.17972 0.61907,0.42375 5.74024,7.38766 -11.04326,0.93586 z m 37.5481,0.0873 5.60224,1.14153 -3.18379,8.52041 -3.95946,4.15479 c -0.37965,0.0753 -0.75994,0.14878 -1.14102,0.22014 l -6.22959,-5.23534 z m -17.74724,0.44235 5.04155,8.32611 -5.04155,6.28437 z m 36.49233,0.77412 9.67023,0.30592 0.0336,0.0217 -1.2237,2.21434 c -4.05857,2.09769 -8.26619,3.94832 -12.60284,5.53299 l -3.13158,-7.01972 1.48465,-1.02423 5.76966,-0.0289 z m -12.20337,0.26458 3.96459,1.03766 3.17347,7.11326 c -2.37032,0.84142 -4.77846,1.60396 -7.22127,2.28358 l -3.00808,-2.16369 z m 24.64345,0.12505 c -0.77621,0.44278 -1.55861,0.87654 -2.34662,1.3007 l 0.59116,-1.0697 z m -58.11171,3.4215 v 10.47792 l -2.43964,-7.15357 z m -3.39204,3.62614 2.45671,7.20421 c -6.88223,-0.324 -13.59773,-1.28169 -20.0887,-2.8174 l 4.27003,-2.95899 0.7121,-0.35606 z m 18.46141,0.6568 2.02107,0.0176 5.87614,4.94027 c -4.27461,0.74798 -8.6355,1.24784 -13.0669,1.4857 z m 14.76759,1.28468 2.30579,1.6583 c -1.66468,0.44196 -3.34492,0.84515 -5.04,1.20974 z"
       id="path28579-8"
       inkscape:connector-curvature="0" />
  </g>
</svg>
