<?xml version="1.0" encoding="UTF-8" standalone="no"?>
<!-- Created with Inkscape (http://www.inkscape.org/) -->

<svg
   xmlns:dc="http://purl.org/dc/elements/1.1/"
   xmlns:cc="http://creativecommons.org/ns#"
   xmlns:rdf="http://www.w3.org/1999/02/22-rdf-syntax-ns#"
   xmlns:svg="http://www.w3.org/2000/svg"
   xmlns="http://www.w3.org/2000/svg"
   xmlns:sodipodi="http://sodipodi.sourceforge.net/DTD/sodipodi-0.dtd"
   xmlns:inkscape="http://www.inkscape.org/namespaces/inkscape"
   sodipodi:docname="genius.svg"
   inkscape:version="0.91+devel r"
   id="svg8"
   version="1.1"
   viewBox="0 0 249.73411 508.11887"
   height="508.11887mm"
   width="249.73412mm">
  <defs
     id="defs2" />
  <sodipodi:namedview
     fit-margin-bottom="0"
     fit-margin-right="0"
     fit-margin-left="0"
     fit-margin-top="0"
     inkscape:window-maximized="1"
     inkscape:window-y="0"
     inkscape:window-x="0"
     inkscape:window-height="698"
     inkscape:window-width="1358"
     showgrid="false"
     inkscape:current-layer="svg8"
     inkscape:document-units="mm"
     inkscape:cy="983.10131"
     inkscape:cx="1070.9136"
     inkscape:zoom="0.19809086"
     inkscape:pageshadow="2"
     inkscape:pageopacity="0.0"
     borderopacity="1.0"
     bordercolor="#666666"
     pagecolor="#ffffff"
     id="base" />
  <metadata
     id="metadata5">
    <rdf:RDF>
      <cc:Work
         rdf:about="">
        <dc:format>image/svg+xml</dc:format>
        <dc:type
           rdf:resource="http://purl.org/dc/dcmitype/StillImage" />
        <dc:title></dc:title>
      </cc:Work>
    </rdf:RDF>
  </metadata>
  <g
     inkscape:label="Camada 1"
     inkscape:groupmode="layer"
     id="layer1"
     transform="translate(-115.78786,89.512953)">
    <path
       style="opacity:1;fill:#280b0b;fill-opacity:0.54913294;stroke:#000000;stroke-width:1.23057723;stroke-linecap:round;stroke-linejoin:round;stroke-miterlimit:4;stroke-dasharray:none;stroke-dashoffset:45;stroke-opacity:1"
       d="M 1336.5989,62.493935 A 107.37284,107.37284 0 0 0 1231.8682,167.26148 h 48.0366 a 3.6233537,3.6233537 0 0 1 2.6016,-1.10713 3.6233537,3.6233537 0 0 1 3.6234,3.62346 3.6233537,3.6233537 0 0 1 -3.6234,3.62346 3.6233537,3.6233537 0 0 1 -2.606,-1.10713 h -48.0691 a 107.37284,107.37284 0 0 0 104.7676,104.73067 v -47.33904 a 3.6233537,3.6233537 0 0 1 -1.1072,-2.60217 3.6233537,3.6233537 0 0 1 3.6229,-3.62347 3.6233537,3.6233537 0 0 1 3.6234,3.62347 3.6233537,3.6233537 0 0 1 -1.1071,2.60662 v 47.37147 a 107.37284,107.37284 0 0 0 104.7307,-104.76755 h -48.0373 a 3.6233537,3.6233537 0 0 1 -2.6016,1.10713 3.6233537,3.6233537 0 0 1 -3.6228,-3.62346 3.6233537,3.6233537 0 0 1 3.6228,-3.62346 3.6233537,3.6233537 0 0 1 2.6067,1.10713 h 48.069 A 107.37284,107.37284 0 0 0 1341.6309,62.530818 v 48.734242 a 3.6233537,3.6233537 0 0 1 1.1071,2.60217 3.6233537,3.6233537 0 0 1 -3.6234,3.62347 3.6233537,3.6233537 0 0 1 -3.6229,-3.62347 3.6233537,3.6233537 0 0 1 1.1072,-2.60599 z"
       id="circle4185"
       inkscape:connector-curvature="0" />
    <circle
       style="opacity:1;fill:none;fill-opacity:0.28901738;stroke:#000000;stroke-width:1.23057723;stroke-linecap:round;stroke-linejoin:round;stroke-miterlimit:4;stroke-dasharray:none;stroke-dashoffset:45;stroke-opacity:1"
       id="path4181"
       cx="1339.1149"
       cy="169.77785"
       r="112.08408" />
    <rect
       style="opacity:1;fill:#008080;fill-opacity:1;stroke:none;stroke-width:9.97455978;stroke-linecap:round;stroke-linejoin:round;stroke-miterlimit:4;stroke-dasharray:none;stroke-dashoffset:45;stroke-opacity:1"
       id="rect4183"
       width="70"
       height="55"
       x="1304.1149"
       y="142.27785"
       ry="1.4082433"
       rx="1.1829247" />
    <circle
       r="124.40871"
       cy="169.77785"
       cx="1339.1149"
       id="circle4240"
       style="opacity:1;fill:none;fill-opacity:0.28901738;stroke:#000000;stroke-width:1.18257141;stroke-linecap:round;stroke-linejoin:round;stroke-miterlimit:4;stroke-dasharray:none;stroke-dashoffset:45;stroke-opacity:1" />
    <path
       style="opacity:1;fill:#de8787;fill-opacity:0.28901738;stroke:#000000;stroke-width:0.26458332;stroke-linecap:round;stroke-linejoin:round;stroke-miterlimit:4;stroke-dasharray:none;stroke-dashoffset:45;stroke-opacity:1"
       d="M 1640.3241,67.267798 A 112.08408,112.08408 0 0 0 1528.285,178.42122 h 67.4925 a 44.605048,44.605048 0 0 1 44.5466,-43.67434 z m 0.9421,0.03256 v 67.492512 a 44.605048,44.605048 0 0 1 43.6511,43.62835 h 67.4558 A 112.08408,112.08408 0 0 0 1641.2662,67.300355 Z m -0.9302,68.556022 a 43.495139,43.495139 0 0 0 -43.495,43.49502 43.495139,43.495139 0 0 0 43.495,43.49501 43.495139,43.495139 0 0 0 43.495,-43.49501 43.495139,43.495139 0 0 0 -43.495,-43.49502 z m -112.0836,43.5069 a 112.08408,112.08408 0 0 0 112.0717,112.07171 v -67.47908 a 44.605048,44.605048 0 0 1 -44.5926,-44.59263 z m 156.6881,0 a 44.605048,44.605048 0 0 1 -43.6743,44.56007 v 67.46566 a 112.08408,112.08408 0 0 0 111.1534,-112.02573 z"
       id="path4181-3"
       inkscape:connector-curvature="0" />
    <rect
       style="opacity:1;fill:#008080;fill-opacity:1;stroke:none;stroke-width:9.97455978;stroke-linecap:round;stroke-linejoin:round;stroke-miterlimit:4;stroke-dasharray:none;stroke-dashoffset:45;stroke-opacity:1"
       id="rect4183-3"
       width="70"
       height="55.000004"
       x="1605.3362"
       y="151.85126"
       ry="1.4082433"
       rx="1.1829247" />
    <circle
       r="124.86722"
       cy="179.35139"
       cx="1640.3361"
       id="circle4240-0"
       style="opacity:1;fill:none;fill-opacity:0.28901738;stroke:#000000;stroke-width:0.26555845;stroke-linecap:round;stroke-linejoin:round;stroke-miterlimit:4;stroke-dasharray:none;stroke-dashoffset:45;stroke-opacity:1" />
    <path
       style="opacity:1;fill:none;fill-opacity:0.28901738;stroke:#000000;stroke-width:0.15112157;stroke-linecap:round;stroke-linejoin:round;stroke-miterlimit:4;stroke-dasharray:none;stroke-dashoffset:45;stroke-opacity:1"
       d="m 1630.9237,109.00375 a 71.058288,71.058288 0 0 0 -60.8015,60.01701 h 60.8015 z m 19.7429,0.13384 v 59.88317 h 59.906 a 71.058288,71.058288 0 0 0 -59.906,-59.88317 z m -80.6782,79.62615 a 71.058288,71.058288 0 0 0 60.9353,60.94047 v -60.94047 z m 80.6782,0 v 60.82419 a 71.058288,71.058288 0 0 0 60.0222,-60.82419 z"
       id="circle4213"
       inkscape:connector-curvature="0" />
    <path
       inkscape:connector-curvature="0"
       d="m 157.40555,118.57841 a 1.5,1.5 0 0 1 0,2.12155 1.5,1.5 0 0 1 -2.12156,10e-6 1.5,1.5 0 0 1 3.7e-4,-2.1212 1.5,1.5 0 0 1 2.12119,-3.6e-4 z m 168.91073,-0.34823 a 1.5,1.5 0 0 1 -3.6e-4,2.12118 1.5,1.5 0 0 1 -2.12119,3.7e-4 1.5,1.5 0 0 1 0,-2.12156 1.5,1.5 0 0 1 2.12155,1e-5 z M 157.75414,-50.331961 a 1.5,1.5 0 0 1 1e-5,2.121551 1.5,1.5 0 0 1 -2.12156,3e-6 1.5,1.5 0 0 1 0,-2.121559 1.5,1.5 0 0 1 2.12155,5e-6 z m 168.06811,0.493661 a 1.5,1.5 0 0 1 0,2.121558 1.5,1.5 0 0 1 -2.12156,3e-6 1.5,1.5 0 0 1 3.7e-4,-2.121193 1.5,1.5 0 0 1 2.12119,-3.68e-4 z M 122.96469,35.430843 a 1.5,1.5 0 0 1 -1.50017,1.500161 1.5,1.5 0 0 1 -1.50017,-1.500161 1.5,1.5 0 0 1 1.50017,-1.499655 1.5,1.5 0 0 1 1.50017,1.499655 z M 242.64885,154.62253 a 1.5,1.5 0 0 1 -1.50016,1.49965 1.5,1.5 0 0 1 -1.50017,-1.49965 1.5,1.5 0 0 1 1.50017,-1.50017 1.5,1.5 0 0 1 1.50016,1.50017 z m 0,-238.382861 a 1.5,1.5 0 0 1 -1.50016,1.500165 1.5,1.5 0 0 1 -1.50017,-1.500168 1.5,1.5 0 0 1 1.50017,-1.500168 1.5,1.5 0 0 1 1.50016,1.500171 z M 361.14188,35.430837 a 1.5,1.5 0 0 1 -1.50017,1.50017 1.5,1.5 0 0 1 -1.50017,-1.50017 1.5,1.5 0 0 1 1.50017,-1.499646 1.5,1.5 0 0 1 1.50017,1.499646 z m -157.52682,2e-6 a 1.5,1.5 0 0 1 -1.49965,1.500165 1.5,1.5 0 0 1 -1.50017,-1.50016 1.5,1.5 0 0 1 1.50017,-1.499655 1.5,1.5 0 0 1 1.49965,1.49965 z m 39.03379,39.033798 a 1.5,1.5 0 0 1 -1.50016,1.499645 1.5,1.5 0 0 1 -1.50017,-1.499647 1.5,1.5 0 0 1 1.50017,-1.50017 1.5,1.5 0 0 1 1.50016,1.500172 z m 0,-77.8929251 a 1.5,1.5 0 0 1 -1.50016,1.5001726 1.5,1.5 0 0 1 -1.50017,-1.5001682 1.5,1.5 0 0 1 1.50017,-1.4996551 1.5,1.5 0 0 1 1.50016,1.4996507 z m 38.85913,38.8591271 a 1.5,1.5 0 0 1 -1.50017,1.500168 1.5,1.5 0 0 1 -1.50016,-1.50017 1.5,1.5 0 0 1 1.50016,-1.499646 1.5,1.5 0 0 1 1.50017,1.499648 z m 71.22769,-0.08578 A 112.08408,112.08408 0 0 0 241.58225,-76.694098 l 0,67.4925214 a 44.605048,44.605048 0 0 1 8.67492,1.069182 0.97734418,0.97734418 0 0 1 0.67387,-0.2619922 0.97734418,0.97734418 0 0 1 0.96843,0.9859663 0.97734418,0.97734418 0 0 1 -0.986,0.9684181 0.97734418,0.97734418 0 0 1 -0.88935,-0.594797 43.495139,43.495139 0 0 0 -9.37203,-1.1032921 43.495139,43.495139 0 0 0 -8.71937,0.9146748 0.97734418,0.97734418 0 0 1 -0.9126,0.6082316 0.97734418,0.97734418 0 0 1 -0.96891,-0.9860202 0.97734418,0.97734418 0 0 1 0.98599,-0.9684124 0.97734418,0.97734418 0 0 1 0.69453,0.2986899 44.605048,44.605048 0 0 1 8.9085,-0.976683 l -4e-5,-67.4790412 A 112.08408,112.08408 0 0 0 128.56848,35.345057 l 67.47908,4e-6 a 44.605048,44.605048 0 0 1 0.90589,-8.797397 0.97734418,0.97734418 0 0 1 -0.27388,-0.667143 0.97734418,0.97734418 0 0 1 0.96686,-0.98754 0.97734418,0.97734418 0 0 1 0.98753,0.96688 0.97734418,0.97734418 0 0 1 -0.5302,0.879019 43.495139,43.495139 0 0 0 -0.94672,8.61808 43.495139,43.495139 0 0 0 1.1126,9.517762 0.97734418,0.97734418 0 0 1 0.57361,0.878499 0.97734418,0.97734418 0 0 1 -0.96687,0.987532 0.97734418,0.97734418 0 0 1 -0.98757,-0.967345 0.97734418,0.97734418 0 0 1 0.32297,-0.734836 44.605048,44.605048 0 0 1 -1.13171,-8.751406 l -67.4656,-4.6e-5 a 112.08408,112.08408 0 0 0 112.02572,111.15342 l 0,-67.479086 a 44.605048,44.605048 0 0 1 -8.90282,-0.928111 0.97734418,0.97734418 0 0 1 -0.70021,0.309549 0.97734418,0.97734418 0 0 1 -0.98856,-0.966359 0.97734418,0.97734418 0 0 1 0.96583,-0.988571 0.97734418,0.97734418 0 0 1 0.85628,0.488857 43.495139,43.495139 0 0 0 8.78137,0.975141 43.495139,43.495139 0 0 0 9.35861,-1.075905 0.97734418,0.97734418 0 0 1 0.89658,-0.617533 0.97734418,0.97734418 0 0 1 0.98858,0.965817 0.97734418,0.97734418 0 0 1 -0.96583,0.98857 0.97734418,0.97734418 0 0 1 -0.68884,-0.273882 44.605048,44.605048 0 0 1 -8.65891,1.099154 l 0,67.455829 A 112.08408,112.08408 0 0 0 352.70323,36.287193 l -67.49264,-7.4e-5 a 44.605048,44.605048 0 0 1 -1.09088,8.784475 0.97734418,0.97734418 0 0 1 0.29404,0.706421 0.97734418,0.97734418 0 0 1 -0.98702,0.967378 0.97734418,0.97734418 0 0 1 -0.96792,-0.98701 0.97734418,0.97734418 0 0 1 0.55398,-0.870232 43.495139,43.495139 0 0 0 1.13429,-9.5312 43.495139,43.495139 0 0 0 -0.8878,-8.579843 0.97734418,0.97734418 0 0 1 -0.60358,-0.911571 0.97734418,0.97734418 0 0 1 0.98651,-0.967902 0.97734418,0.97734418 0 0 1 0.96791,0.987001 0.97734418,0.97734418 0 0 1 -0.3085,0.702282 44.605048,44.605048 0 0 1 0.95498,8.758126 z m 1.05162,0.0093 A 113.13255,113.13255 0 0 1 240.65466,148.48699 113.13255,113.13255 0 0 1 127.52255,35.354358 113.13255,113.13255 0 0 1 240.65466,-77.77827 113.13255,113.13255 0 0 1 353.78729,35.354356 Z m 11.73468,7e-6 A 124.86722,124.86722 0 0 0 240.65466,-89.512951 124.86722,124.86722 0 0 0 115.78786,35.354359 124.86722,124.86722 0 0 0 240.65466,160.22167 124.86722,124.86722 0 0 0 365.52197,35.354363 Z"
       style="opacity:1;fill:#a3beda;fill-opacity:0.575;stroke:#000000;stroke-width:0.26458332;stroke-linecap:round;stroke-linejoin:round;stroke-miterlimit:4;stroke-dasharray:none;stroke-dashoffset:45;stroke-opacity:1"
       id="path4473" />
    <rect
       style="opacity:1;fill:#008080;fill-opacity:1;stroke:#000000;stroke-width:1;stroke-linecap:round;stroke-linejoin:round;stroke-miterlimit:4;stroke-dasharray:none;stroke-dashoffset:45;stroke-opacity:1"
       id="rect4183-3-8"
       width="70"
       height="55.000008"
       x="0.35439959"
       y="-268.155"
       ry="1.4082433"
       rx="1.1829247"
       transform="rotate(90)" />
    <g
       id="g4465" />
    <path
       id="path4488"
       style="opacity:1;fill:#a3beda;fill-opacity:0.575;stroke:none;stroke-width:0.26458332;stroke-linecap:round;stroke-linejoin:round;stroke-miterlimit:4;stroke-dasharray:none;stroke-dashoffset:45;stroke-opacity:1"
       d="m 281.50798,287.60136 a 1.5,1.5 0 0 1 -1.50017,1.50017 1.5,1.5 0 0 1 -1.50016,-1.50017 1.5,1.5 0 0 1 1.50016,-1.49965 1.5,1.5 0 0 1 1.50017,1.49965 z m -38.85913,-38.85913 a 1.5,1.5 0 0 1 -1.50017,1.50018 1.5,1.5 0 0 1 -1.50016,-1.50017 1.5,1.5 0 0 1 1.50017,-1.49966 1.5,1.5 0 0 1 1.50016,1.49965 z m 0,77.89293 a 1.5,1.5 0 0 1 -1.50017,1.49964 1.5,1.5 0 0 1 -1.50016,-1.49965 1.5,1.5 0 0 1 1.50016,-1.50017 1.5,1.5 0 0 1 1.50017,1.50018 z m -39.03379,-39.0338 a 1.5,1.5 0 0 1 -1.49965,1.50016 1.5,1.5 0 0 1 -1.50017,-1.50016 1.5,1.5 0 0 1 1.50017,-1.49965 1.5,1.5 0 0 1 1.49965,1.49965 z m 157.52682,0 a 1.5,1.5 0 0 1 -1.50017,1.50017 1.5,1.5 0 0 1 -1.50017,-1.50017 1.5,1.5 0 0 1 1.50017,-1.49965 1.5,1.5 0 0 1 1.50017,1.49965 z M 242.64885,168.41019 a 1.5,1.5 0 0 1 -1.50016,1.50016 1.5,1.5 0 0 1 -1.50017,-1.50017 1.5,1.5 0 0 1 1.50017,-1.50017 1.5,1.5 0 0 1 1.50016,1.50018 z m 0,238.38286 a 1.5,1.5 0 0 1 -1.50016,1.49965 1.5,1.5 0 0 1 -1.50017,-1.49965 1.5,1.5 0 0 1 1.50017,-1.50017 1.5,1.5 0 0 1 1.50016,1.50017 z M 122.96469,287.60136 a 1.5,1.5 0 0 1 -1.50017,1.50016 1.5,1.5 0 0 1 -1.50017,-1.50016 1.5,1.5 0 0 1 1.50017,-1.49965 1.5,1.5 0 0 1 1.50017,1.49965 z m 202.85756,-85.26914 a 1.5,1.5 0 0 1 0,2.12155 1.5,1.5 0 0 1 -2.12156,1e-5 1.5,1.5 0 0 1 3.7e-4,-2.12119 1.5,1.5 0 0 1 2.12119,-3.7e-4 z m -168.06811,-0.49366 a 1.5,1.5 0 0 1 1e-5,2.12155 1.5,1.5 0 0 1 -2.12156,0 1.5,1.5 0 0 1 0,-2.12156 1.5,1.5 0 0 1 2.12155,1e-5 z M 326.31628,370.4007 a 1.5,1.5 0 0 1 -3.6e-4,2.12119 1.5,1.5 0 0 1 -2.12119,3.6e-4 1.5,1.5 0 0 1 0,-2.12156 1.5,1.5 0 0 1 2.12155,10e-6 z m -168.91073,0.34823 a 1.5,1.5 0 0 1 -1e-5,2.12155 1.5,1.5 0 0 1 -2.12155,1e-5 1.5,1.5 0 0 1 3.7e-4,-2.1212 1.5,1.5 0 0 1 2.12119,-3.6e-4 z m 208.11642,-83.22436 a 124.86722,124.86722 0 0 0 -124.86731,-124.867 124.86722,124.86722 0 0 0 -124.8668,124.86731 124.86722,124.86722 0 0 0 124.86681,124.86731 124.86722,124.86722 0 0 0 124.8673,-124.8673 z" />
  </g>
</svg>
