<?xml version="1.0" encoding="UTF-8" standalone="no"?>
<!-- Created with Inkscape (http://www.inkscape.org/) -->

<svg
   xmlns:dc="http://purl.org/dc/elements/1.1/"
   xmlns:cc="http://creativecommons.org/ns#"
   xmlns:rdf="http://www.w3.org/1999/02/22-rdf-syntax-ns#"
   xmlns:svg="http://www.w3.org/2000/svg"
   xmlns="http://www.w3.org/2000/svg"
   xmlns:sodipodi="http://sodipodi.sourceforge.net/DTD/sodipodi-0.dtd"
   xmlns:inkscape="http://www.inkscape.org/namespaces/inkscape"
   width="297mm"
   height="210mm"
   viewBox="0 0 297 210"
   version="1.1"
   id="svg8"
   inkscape:version="0.91+devel r"
   sodipodi:docname="rascunho_4.svg">
  <defs
     id="defs2" />
  <sodipodi:namedview
     id="base"
     pagecolor="#ffffff"
     bordercolor="#666666"
     borderopacity="1.0"
     inkscape:pageopacity="0.0"
     inkscape:pageshadow="2"
     inkscape:zoom="1.4717642"
     inkscape:cx="273.93175"
     inkscape:cy="244.24737"
     inkscape:document-units="mm"
     inkscape:current-layer="layer5"
     showgrid="false"
     inkscape:window-width="800"
     inkscape:window-height="573"
     inkscape:window-x="0"
     inkscape:window-y="0"
     inkscape:window-maximized="1"
     showguides="true"
     inkscape:guide-bbox="true">
    <sodipodi:guide
       position="55.082944,92.927558"
       orientation="1,0"
       id="guide8410" />
    <sodipodi:guide
       position="159.88192,98.998821"
       orientation="1,0"
       id="guide8483" />
  </sodipodi:namedview>
  <metadata
     id="metadata5">
    <rdf:RDF>
      <cc:Work
         rdf:about="">
        <dc:format>image/svg+xml</dc:format>
        <dc:type
           rdf:resource="http://purl.org/dc/dcmitype/StillImage" />
        <dc:title />
      </cc:Work>
    </rdf:RDF>
  </metadata>
  <g
     inkscape:groupmode="layer"
     id="layer2"
     inkscape:label="footprints"
     style="display:none">
    <g
       style="display:inline"
       id="g4279"
       transform="translate(-25.489121,-64.434614)">
      <rect
         transform="rotate(90)"
         y="-266.37103"
         x="116.43578"
         height="81"
         width="59"
         id="rect4264"
         style="opacity:1;fill:#4545ff;fill-opacity:0.80239521;stroke:none;stroke-width:0.25641027;stroke-linecap:round;stroke-linejoin:round;stroke-miterlimit:4;stroke-dasharray:none;stroke-dashoffset:0;stroke-opacity:1" />
      <rect
         y="160.03749"
         x="263.70154"
         height="10.423729"
         width="4.5762711"
         id="rect4266"
         style="opacity:1;fill:#4545ff;fill-opacity:0.80239521;stroke:none;stroke-width:0.21166667;stroke-linecap:round;stroke-linejoin:round;stroke-miterlimit:4;stroke-dasharray:none;stroke-dashoffset:0;stroke-opacity:1" />
      <rect
         y="121.0678"
         x="258.55933"
         height="7.6271181"
         width="10.423729"
         id="rect4272"
         style="opacity:1;fill:#4545ff;fill-opacity:0.80239521;stroke:none;stroke-width:0.21166667;stroke-linecap:round;stroke-linejoin:round;stroke-miterlimit:4;stroke-dasharray:none;stroke-dashoffset:0;stroke-opacity:1" />
    </g>
    <rect
       transform="translate(0,-87.000001)"
       style="display:inline;opacity:1;fill:#4545ff;fill-opacity:0.80239521;stroke:none;stroke-width:0.21166667;stroke-linecap:round;stroke-linejoin:round;stroke-miterlimit:4;stroke-dasharray:none;stroke-dashoffset:0;stroke-opacity:1"
       id="rect4331"
       width="32.757935"
       height="46.79705"
       x="110.52602"
       y="134.58382" />
    <g
       style="display:inline"
       transform="translate(-25.396419,25.59167)"
       id="g4319">
      <circle
         r="3"
         cy="138.13689"
         cx="275.89529"
         id="circle4315"
         style="opacity:1;fill:#4545ff;fill-opacity:0.80239521;stroke:none;stroke-width:0.19354708;stroke-linecap:round;stroke-linejoin:round;stroke-miterlimit:4;stroke-dasharray:none;stroke-dashoffset:0;stroke-opacity:1" />
      <circle
         style="opacity:1;fill:#4545ff;fill-opacity:0.80239521;stroke:none;stroke-width:0.09838644;stroke-linecap:round;stroke-linejoin:round;stroke-miterlimit:4;stroke-dasharray:none;stroke-dashoffset:0;stroke-opacity:1"
         id="circle4317"
         cx="275.89529"
         cy="138.13689"
         r="1.525" />
    </g>
    <g
       style="display:inline"
       id="g4327"
       transform="translate(-25.396419,-87.836621)">
      <circle
         style="opacity:1;fill:#4545ff;fill-opacity:0.80239521;stroke:none;stroke-width:0.19354708;stroke-linecap:round;stroke-linejoin:round;stroke-miterlimit:4;stroke-dasharray:none;stroke-dashoffset:0;stroke-opacity:1"
         id="circle4323"
         cx="275.89529"
         cy="138.13689"
         r="3" />
      <circle
         r="1.525"
         cy="138.13689"
         cx="275.89529"
         id="circle4325"
         style="opacity:1;fill:#4545ff;fill-opacity:0.80239521;stroke:none;stroke-width:0.09838644;stroke-linecap:round;stroke-linejoin:round;stroke-miterlimit:4;stroke-dasharray:none;stroke-dashoffset:0;stroke-opacity:1" />
    </g>
    <g
       style="display:inline"
       id="g4359"
       transform="translate(-23.682004,-64.434614)">
      <rect
         y="127.24292"
         x="171.98534"
         height="14.75907"
         width="2.1598639"
         id="rect4333"
         style="opacity:1;fill:#4545ff;fill-opacity:0.80239521;stroke:none;stroke-width:0.21166667;stroke-linecap:round;stroke-linejoin:round;stroke-miterlimit:4;stroke-dasharray:none;stroke-dashoffset:0;stroke-opacity:1" />
      <rect
         style="opacity:1;fill:#4545ff;fill-opacity:0.80239521;stroke:none;stroke-width:0.21166667;stroke-linecap:round;stroke-linejoin:round;stroke-miterlimit:4;stroke-dasharray:none;stroke-dashoffset:0;stroke-opacity:1"
         id="rect4335"
         width="2.1598639"
         height="14.75907"
         x="127.02879"
         y="127.24292" />
    </g>
    <g
       style="display:inline"
       id="g159"
       transform="translate(-226.72022,25.59167)">
      <circle
         style="opacity:1;fill:#4545ff;fill-opacity:0.80239521;stroke:none;stroke-width:0.19354708;stroke-linecap:round;stroke-linejoin:round;stroke-miterlimit:4;stroke-dasharray:none;stroke-dashoffset:0;stroke-opacity:1"
         id="circle155"
         cx="275.89529"
         cy="138.13689"
         r="3" />
      <circle
         r="1.525"
         cy="138.13689"
         cx="275.89529"
         id="circle157"
         style="opacity:1;fill:#4545ff;fill-opacity:0.80239521;stroke:none;stroke-width:0.09838644;stroke-linecap:round;stroke-linejoin:round;stroke-miterlimit:4;stroke-dasharray:none;stroke-dashoffset:0;stroke-opacity:1" />
    </g>
    <g
       style="display:inline"
       transform="translate(-226.72022,-87.836621)"
       id="g165">
      <circle
         r="3"
         cy="138.13689"
         cx="275.89529"
         id="circle161"
         style="opacity:1;fill:#4545ff;fill-opacity:0.80239521;stroke:none;stroke-width:0.19354708;stroke-linecap:round;stroke-linejoin:round;stroke-miterlimit:4;stroke-dasharray:none;stroke-dashoffset:0;stroke-opacity:1" />
      <circle
         style="opacity:1;fill:#4545ff;fill-opacity:0.80239521;stroke:none;stroke-width:0.09838644;stroke-linecap:round;stroke-linejoin:round;stroke-miterlimit:4;stroke-dasharray:none;stroke-dashoffset:0;stroke-opacity:1"
         id="circle163"
         cx="275.89529"
         cy="138.13689"
         r="1.525" />
    </g>
    <circle
       style="display:inline;opacity:1;fill:#00ff00;fill-opacity:0.675;stroke:#00ff00;stroke-width:0;stroke-linecap:round;stroke-linejoin:miter;stroke-miterlimit:4;stroke-dasharray:none;stroke-dashoffset:0;stroke-opacity:1"
       id="path8388"
       cx="64.020859"
       cy="62.910927"
       r="8.499999" />
    <circle
       style="display:inline;opacity:1;fill:#00ff00;fill-opacity:0.675;stroke:#00ff00;stroke-width:0;stroke-linecap:round;stroke-linejoin:miter;stroke-miterlimit:4;stroke-dasharray:none;stroke-dashoffset:0;stroke-opacity:1"
       id="path8388-9"
       cx="81.585724"
       cy="62.910927"
       r="8.499999" />
    <circle
       style="display:inline;opacity:1;fill:#00ff00;fill-opacity:0.675;stroke:#00ff00;stroke-width:0;stroke-linecap:round;stroke-linejoin:miter;stroke-miterlimit:4;stroke-dasharray:none;stroke-dashoffset:0;stroke-opacity:1"
       id="path8388-9-2"
       cx="99.150589"
       cy="62.910927"
       r="8.499999" />
  </g>
  <g
     inkscape:groupmode="layer"
     id="layer3"
     inkscape:label="base"
     style="display:none">
    <path
       style="display:inline;opacity:1;fill:#0000ff;fill-opacity:1;stroke:#000000;stroke-width:0.7197147;stroke-linecap:round;stroke-linejoin:round;stroke-miterlimit:4;stroke-dasharray:none;stroke-dashoffset:0;stroke-opacity:1"
       d="m 158.05078,168.53906 v 441.62696 c 0,19.36259 15.58661,34.95117 34.94922,34.95117 h 743.35547 c 19.36259,0 34.94922,-15.58858 34.94922,-34.95117 V 168.53906 H 541.54492 V 341.63281 H 417.73633 V 168.53906 Z m 27.8086,15.8086 a 5.7637786,5.7637786 0 0 1 5.76367,5.76367 5.7637786,5.7637786 0 0 1 -5.76367,5.76367 5.7637786,5.7637786 0 0 1 -5.76368,-5.76367 5.7637786,5.7637786 0 0 1 5.76368,-5.76367 z m 760.9082,0 a 5.7637789,5.7637789 0 0 1 5.76367,5.76367 5.7637789,5.7637789 0 0 1 -5.76367,5.76367 5.7637789,5.7637789 0 0 1 -5.76367,-5.76367 5.7637789,5.7637789 0 0 1 5.76367,-5.76367 z m -556.16602,15.33007 h 8.16406 v 121.77149 h -8.16406 z m 169.91406,0 h 8.16407 v 121.77149 h -8.16407 z m -374.65624,413.375 a 5.7637789,5.7637789 0 0 1 5.76367,5.76368 5.7637789,5.7637789 0 0 1 -5.76367,5.76367 5.7637789,5.7637789 0 0 1 -5.76368,-5.76367 5.7637789,5.7637789 0 0 1 5.76368,-5.76368 z m 760.9082,0 a 5.7637789,5.7637789 0 0 1 5.76367,5.76368 5.7637789,5.7637789 0 0 1 -5.76367,5.76367 5.7637789,5.7637789 0 0 1 -5.76367,-5.76367 5.7637789,5.7637789 0 0 1 5.76367,-5.76368 z"
       transform="scale(0.26458333)"
       id="path218"
       inkscape:connector-curvature="0" />
  </g>
  <g
     inkscape:groupmode="layer"
     id="layer4"
     inkscape:label="topo"
     style="display:inline">
    <path
       style="display:inline;opacity:1;fill:#ff0000;fill-opacity:0.675;stroke:none;stroke-width:2.72018147;stroke-linecap:round;stroke-linejoin:round;stroke-miterlimit:4;stroke-dasharray:none;stroke-dashoffset:0;stroke-opacity:1"
       d="m 158.05078,168.53906 v 441.62696 c 0,19.36259 15.58661,34.95117 34.94922,34.95117 h 15.1875 V 442.47852 h 5.81836 33.02148 c 1.21658,-2.8128 3.98628,-4.63314 7.05078,-4.63477 4.24598,-2.3e-4 7.68966,3.4415 7.68946,7.6875 2e-4,4.24596 -3.44348,7.68769 -7.68946,7.6875 -3.06224,-0.004 -5.82926,-1.82408 -7.04492,-4.63477 H 214.29102 V 645.11719 H 386.59085 V 448.58203 h -33.17969 c -1.21658,2.8128 -3.98817,4.63528 -7.05274,4.63672 -4.24593,2.3e-4 -7.68767,-3.44154 -7.6875,-7.6875 -2.1e-4,-4.24596 3.44153,-7.68773 7.6875,-7.6875 3.0617,0.004 5.82948,1.82461 7.04493,4.63477 h 71.83203 c 1.21655,-2.8128 3.9881,-4.63333 7.05273,-4.63477 4.24596,-1.9e-4 7.68769,3.44154 7.6875,7.6875 1.9e-4,4.24596 -3.44158,7.68769 -7.6875,7.6875 -3.06232,-0.004 -5.83123,-1.82604 -7.04687,-4.63672 H 392.69436 V 645.11719 H 565.19141 V 448.58203 h -33.17774 c -1.21659,2.8128 -3.98814,4.63528 -7.05273,4.63672 -4.24596,2.3e-4 -7.68769,-3.44154 -7.6875,-7.6875 -2.3e-4,-4.24596 3.4415,-7.68773 7.6875,-7.6875 3.06172,0.004 5.82946,1.82461 7.04492,4.63477 h 71.83203 c 1.21655,-2.8128 3.98615,-4.63333 7.05078,-4.63477 4.24596,-1.9e-4 7.68964,3.44154 7.68945,7.6875 1.9e-4,4.24596 -3.44353,7.68769 -7.68945,7.6875 -3.06232,-0.004 -5.82927,-1.82604 -7.04492,-4.63672 H 571.29688 V 645.11719 H 743.11914 V 448.58203 h -33.17969 c -1.21659,2.8128 -3.98814,4.63528 -7.05273,4.63672 -4.24596,2.3e-4 -7.68769,-3.44154 -7.6875,-7.6875 -2.3e-4,-4.24596 3.4415,-7.68773 7.6875,-7.6875 3.06172,0.004 5.82946,1.82461 7.04492,4.63477 h 71.83203 c 1.21656,-2.8128 3.98811,-4.63333 7.05274,-4.63477 4.24596,-1.9e-4 7.68769,3.44154 7.6875,7.6875 1.9e-4,4.24596 -3.44158,7.68769 -7.6875,7.6875 -3.06233,-0.004 -5.83123,-1.82604 -7.04688,-4.63672 h -32.54687 v 196.53516 h 172.1875 V 448.58398 h -33.97071 c -1.21561,2.81069 -3.98263,4.63084 -7.04492,4.63477 -4.246,1.9e-4 -7.68968,-3.44154 -7.68945,-7.6875 -2.3e-4,-4.24596 3.44345,-7.68773 7.68945,-7.6875 3.06459,0.002 5.83423,1.822 7.05078,4.63477 h 34.25 5.82031 v 202.63867 h 8.83985 c 19.36259,0 34.94922,-15.58858 34.94922,-34.95117 V 168.53906 Z m 27.8086,15.8086 c 3.18316,6e-5 5.76361,2.58051 5.76367,5.76367 -6e-5,3.18316 -2.58051,5.76361 -5.76367,5.76367 -3.18317,-5e-5 -5.76362,-2.5805 -5.76368,-5.76367 6e-5,-3.18317 2.58051,-5.76362 5.76368,-5.76367 z m 760.9082,0 c 3.18316,6e-5 5.76361,2.58051 5.76367,5.76367 -6e-5,3.18316 -2.58051,5.76361 -5.76367,5.76367 -3.18316,-6e-5 -5.76361,-2.58051 -5.76367,-5.76367 6e-5,-3.18316 2.58051,-5.76361 5.76367,-5.76367 z m -347.35742,23.84375 h 307.9414 c 5.86294,-0.0665 5.86294,8.76176 0,8.69531 H 603.00391 l -88.67774,88.67969 H 198.00391 c -5.79818,0 -5.79818,-8.69727 0,-8.69727 H 510.73047 Z M 242.0625,224.35547 c 7.35908,-7.7e-4 13.32499,5.96514 13.32422,13.32422 -3.2e-4,7.35832 -5.9659,13.32303 -13.32422,13.32226 -7.35755,-3.1e-4 -13.32195,-5.96471 -13.32227,-13.32226 -7.7e-4,-7.35832 5.96395,-13.32391 13.32227,-13.32422 z m 66.38672,0 c 7.35908,-7.7e-4 13.32499,5.96514 13.32422,13.32422 -3.2e-4,7.35832 -5.9659,13.32303 -13.32422,13.32226 -7.35755,-3.1e-4 -13.32195,-5.96471 -13.32227,-13.32226 -7.7e-4,-7.35832 5.96395,-13.32391 13.32227,-13.32422 z m 66.38672,0 c 7.35908,-7.7e-4 13.32499,5.96514 13.32422,13.32422 -3.2e-4,7.35832 -5.9659,13.32303 -13.32422,13.32226 -7.35755,-3.1e-4 -13.32195,-5.96471 -13.32227,-13.32226 -7.7e-4,-7.35832 5.96395,-13.32391 13.32227,-13.32422 z m 540.56054,8.50391 c 2.43904,-0.0417 4.43489,1.93132 4.42119,4.37067 -0.0137,2.43935 -2.0316,4.38986 -4.47001,4.32073 h -304.3418 l -88.67774,88.67774 H 206.00586 c -6.01614,0.22883 -6.01614,-8.91633 0,-8.6875 h 312.71875 l 88.67969,-88.67969 h 307.94336 c 0.0163,-7.4e-4 0.0325,-0.001 0.0488,-0.002 z m -299.99023,24.66601 h 307.94336 c 5.86271,-0.0662 5.86271,8.76153 0,8.69531 h -304.3418 l -88.67773,88.67774 H 214.00781 c -5.73214,-0.0644 -5.73214,-8.63094 0,-8.69532 h 312.71875 z m 315.99414,24.66797 c 2.45284,-0.0624 4.47121,1.91632 4.45742,4.36991 -0.0138,2.45359 -2.05427,4.40953 -4.50625,4.31954 H 627.00977 L 538.33203,379.5625 H 222.00391 c -5.9788,0.18881 -5.9788,-8.87826 0,-8.68945 h 312.72461 l 88.67968,-88.67774 h 307.94336 c 0.0163,-7.4e-4 0.0326,-0.001 0.0488,-0.002 z m -280.38867,56.54687 c 5.27036,1.9e-4 9.54278,4.27261 9.54297,9.54297 -1.9e-4,5.27036 -4.27261,9.54278 -9.54297,9.54297 -5.27036,-1.9e-4 -9.54278,-4.27261 -9.54297,-9.54297 1.9e-4,-5.27036 4.27261,-9.54278 9.54297,-9.54297 z m 72.4082,0 c 5.27112,-8.9e-4 9.54473,4.27185 9.54492,9.54297 -1.9e-4,5.27112 -4.2738,9.54386 -9.54492,9.54297 -5.27036,-1.9e-4 -9.54278,-4.27261 -9.54297,-9.54297 1.9e-4,-5.27036 4.27261,-9.54278 9.54297,-9.54297 z m 72.41016,0 c 5.27036,1.9e-4 9.54278,4.27261 9.54297,9.54297 -1.9e-4,5.27036 -4.27261,9.54278 -9.54297,9.54297 -5.27036,-1.9e-4 -9.54278,-4.27261 -9.54297,-9.54297 1.9e-4,-5.27036 4.27261,-9.54278 9.54297,-9.54297 z m 72.41015,0 c 5.27036,1.9e-4 9.54278,4.27261 9.54297,9.54297 -1.9e-4,5.27036 -4.27261,9.54278 -9.54297,9.54297 -5.27112,8.9e-4 -9.54473,-4.27185 -9.54492,-9.54297 1.9e-4,-5.27112 4.2738,-9.54386 9.54492,-9.54297 z m -682.38085,274.3125 c 3.18317,6e-5 5.76362,2.58051 5.76367,5.76368 -6e-5,3.18316 -2.58051,5.76361 -5.76367,5.76367 -3.18317,-5e-5 -5.76362,-2.5805 -5.76368,-5.76367 5e-5,-3.18317 2.58051,-5.76363 5.76368,-5.76368 z m 760.9082,0 c 3.18317,6e-5 5.76362,2.58051 5.76367,5.76368 -6e-5,3.18316 -2.58051,5.76361 -5.76367,5.76367 -3.18316,-6e-5 -5.76361,-2.58051 -5.76367,-5.76367 5e-5,-3.18317 2.5805,-5.76362 5.76367,-5.76368 z"
       transform="scale(0.26458333)"
       id="path4173"
       inkscape:connector-curvature="0"
       sodipodi:nodetypes="cssccccccccccccccccccccccccccccccccccccccccccccccccccccccccccccccsscccccccccccccccccssccccccccccccccccccsccccccccccccccccccccccccccccccccccccccccccccccccccccccccccccc" />
  </g>
  <g
     inkscape:groupmode="layer"
     id="layer5"
     inkscape:label="pads">
    <rect
       style="opacity:1;fill:#00ff00;fill-opacity:0.675;stroke:#00ff00;stroke-width:0;stroke-linecap:round;stroke-linejoin:miter;stroke-miterlimit:4;stroke-dasharray:none;stroke-dashoffset:0;stroke-opacity:1"
       id="rect8514"
       width="42.34214"
       height="74.509003"
       x="58.302845"
       y="121.00485"
       rx="2.9982185"
       ry="2.9982185" />
    <rect
       ry="2.9982185"
       rx="2.9982185"
       y="121.00485"
       x="105.50653"
       height="74.509003"
       width="42.34214"
       id="rect120"
       style="opacity:1;fill:#00ff00;fill-opacity:0.675;stroke:#00ff00;stroke-width:0;stroke-linecap:round;stroke-linejoin:miter;stroke-miterlimit:4;stroke-dasharray:none;stroke-dashoffset:0;stroke-opacity:1" />
    <rect
       style="opacity:1;fill:#00ff00;fill-opacity:0.675;stroke:#00ff00;stroke-width:0;stroke-linecap:round;stroke-linejoin:miter;stroke-miterlimit:4;stroke-dasharray:none;stroke-dashoffset:0;stroke-opacity:1"
       id="rect122"
       width="42.34214"
       height="74.509003"
       x="152.71024"
       y="121.00485"
       rx="2.9982185"
       ry="2.9982185" />
    <rect
       ry="2.9982185"
       rx="2.9982185"
       y="121.00485"
       x="199.91394"
       height="74.509003"
       width="42.34214"
       id="rect124"
       style="opacity:1;fill:#00ff00;fill-opacity:0.675;stroke:#00ff00;stroke-width:0;stroke-linecap:round;stroke-linejoin:miter;stroke-miterlimit:4;stroke-dasharray:none;stroke-dashoffset:0;stroke-opacity:1" />
    <rect
       ry="2.9982185"
       rx="2.9982185"
       y="123.92858"
       x="61.449028"
       height="68.661545"
       width="36.04977"
       id="rect147"
       style="opacity:1;fill:#0000ff;fill-opacity:0.675;stroke:#00ff00;stroke-width:0;stroke-linecap:round;stroke-linejoin:miter;stroke-miterlimit:4;stroke-dasharray:none;stroke-dashoffset:0;stroke-opacity:1" />
  </g>
</svg>
