<?xml version="1.0" encoding="UTF-8" standalone="no"?>
<!-- Created with Inkscape (http://www.inkscape.org/) -->

<svg
   xmlns:dc="http://purl.org/dc/elements/1.1/"
   xmlns:cc="http://creativecommons.org/ns#"
   xmlns:rdf="http://www.w3.org/1999/02/22-rdf-syntax-ns#"
   xmlns:svg="http://www.w3.org/2000/svg"
   xmlns="http://www.w3.org/2000/svg"
   xmlns:sodipodi="http://sodipodi.sourceforge.net/DTD/sodipodi-0.dtd"
   xmlns:inkscape="http://www.inkscape.org/namespaces/inkscape"
   width="297mm"
   height="210mm"
   viewBox="0 0 297 210"
   version="1.1"
   id="svg8"
   inkscape:version="0.91+devel r"
   sodipodi:docname="rascunho_1.svg">
  <defs
     id="defs2" />
  <sodipodi:namedview
     id="base"
     pagecolor="#ffffff"
     bordercolor="#666666"
     borderopacity="1.0"
     inkscape:pageopacity="0.0"
     inkscape:pageshadow="2"
     inkscape:zoom="0.36794105"
     inkscape:cx="763.54541"
     inkscape:cy="62.505828"
     inkscape:document-units="mm"
     inkscape:current-layer="layer1"
     showgrid="false"
     inkscape:window-width="800"
     inkscape:window-height="573"
     inkscape:window-x="0"
     inkscape:window-y="0"
     inkscape:window-maximized="1" />
  <metadata
     id="metadata5">
    <rdf:RDF>
      <cc:Work
         rdf:about="">
        <dc:format>image/svg+xml</dc:format>
        <dc:type
           rdf:resource="http://purl.org/dc/dcmitype/StillImage" />
        <dc:title></dc:title>
      </cc:Work>
    </rdf:RDF>
  </metadata>
  <g
     inkscape:label="Camada 1"
     inkscape:groupmode="layer"
     id="layer1"
     transform="translate(0,-87)">
    <path
       style="opacity:1;fill:none;fill-opacity:1;stroke:#000000;stroke-width:0.23579468;stroke-linecap:round;stroke-linejoin:round;stroke-miterlimit:4;stroke-dasharray:none;stroke-dashoffset:0;stroke-opacity:1"
       d="m 16.184096,112.70063 v 132.44732 c 0,6.34362 5.106839,11.45098 11.450465,11.45098 H 271.17422 c 6.34362,0 11.45045,-5.10736 11.45045,-11.45098 V 112.70063 Z"
       id="path4173"
       inkscape:connector-curvature="0"
       sodipodi:nodetypes="csssscc" />
    <path
       id="path4207"
       style="opacity:1;fill:#ffffff;fill-opacity:1;stroke:#000000;stroke-width:0.11642899;stroke-linecap:round;stroke-linejoin:round;stroke-miterlimit:4;stroke-dasharray:none;stroke-dashoffset:0;stroke-opacity:1"
       d="m 244.84152,158.51873 c 1.00403,5.2e-4 1.91187,0.59723 2.31045,1.51876 h 19.2195 1.90634 c 0,42.11302 0,84.22604 0,126.33906 h -1.99988 V 162.03737 H 247.1499 c -0.39827,0.92085 -1.3051,1.51748 -2.30838,1.51877 -1.39108,7e-5 -2.51878,-1.12764 -2.51871,-2.51871 -7e-5,-1.39107 1.12763,-2.51878 2.51871,-2.5187 z m -188.795141,0 c -1.004032,5.3e-4 -1.911878,0.59723 -2.310454,1.51877 H 34.516427 32.610083 c 0,42.11301 0,84.22603 0,126.33905 h 1.999878 V 162.03737 h 19.128032 c 0.398275,0.92085 1.3051,1.51748 2.308386,1.51877 1.391073,7e-5 2.518776,-1.12763 2.518709,-2.5187 6.7e-5,-1.39108 -1.127636,-2.51879 -2.518709,-2.51871 z m 130.382741,-1.5e-4 a 2.518588,2.518588 0 0 0 -2.51871,2.51871 2.518588,2.518588 0 0 0 2.51871,2.51871 2.518588,2.518588 0 0 0 2.31045,-1.51878 h 19.12596 V 286.3764 h 1.99988 V 162.03722 h 19.12803 a 2.518588,2.518588 0 0 0 2.30839,1.51878 2.518588,2.518588 0 0 0 2.51871,-2.51871 2.518588,2.518588 0 0 0 -2.51871,-2.51871 2.518588,2.518588 0 0 0 -2.31045,1.51877 h -40.25439 a 2.518588,2.518588 0 0 0 -2.30787,-1.51877 z m -58.41858,0 a 2.518588,2.518588 0 0 0 -2.51871,2.51871 2.518588,2.518588 0 0 0 2.51871,2.51871 2.518588,2.518588 0 0 0 2.31045,-1.51878 h 19.12596 V 286.3764 h 1.99988 V 162.03722 h 19.12803 a 2.518588,2.518588 0 0 0 2.30839,1.51878 2.518588,2.518588 0 0 0 2.51871,-2.51871 2.518588,2.518588 0 0 0 -2.51871,-2.51871 2.518588,2.518588 0 0 0 -2.31045,1.51877 h -40.25439 a 2.518588,2.518588 0 0 0 -2.30787,-1.51877 z m -58.418561,0 a 2.518588,2.518588 0 0 0 -2.518709,2.51871 2.518588,2.518588 0 0 0 2.518709,2.51871 2.518588,2.518588 0 0 0 2.310453,-1.51878 H 91.028396 V 286.3764 h 1.999877 V 162.03722 h 19.128037 a 2.518588,2.518588 0 0 0 2.30838,1.51878 2.518588,2.518588 0 0 0 2.51871,-2.51871 2.518588,2.518588 0 0 0 -2.51871,-2.51871 2.518588,2.518588 0 0 0 -2.31045,1.51877 H 71.899849 a 2.518588,2.518588 0 0 0 -2.30787,-1.51877 z" />
    <rect
       style="opacity:1;fill:#ffffff;fill-opacity:1;stroke:none;stroke-width:0.21166667;stroke-linecap:round;stroke-linejoin:round;stroke-miterlimit:4;stroke-dasharray:none;stroke-dashoffset:0;stroke-opacity:1"
       id="rect4241"
       width="283.32211"
       height="81.976448"
       x="17.258198"
       y="256.73087" />
  </g>
</svg>
