<?xml version="1.0" encoding="UTF-8" standalone="no"?>
<!-- Created with Inkscape (http://www.inkscape.org/) -->

<svg
   xmlns:dc="http://purl.org/dc/elements/1.1/"
   xmlns:cc="http://creativecommons.org/ns#"
   xmlns:rdf="http://www.w3.org/1999/02/22-rdf-syntax-ns#"
   xmlns:svg="http://www.w3.org/2000/svg"
   xmlns="http://www.w3.org/2000/svg"
   xmlns:sodipodi="http://sodipodi.sourceforge.net/DTD/sodipodi-0.dtd"
   xmlns:inkscape="http://www.inkscape.org/namespaces/inkscape"
   width="297mm"
   height="210mm"
   viewBox="0 0 297 210"
   version="1.1"
   id="svg8"
   inkscape:version="0.91+devel r"
   sodipodi:docname="rascunho_2.svg">
  <defs
     id="defs2" />
  <sodipodi:namedview
     id="base"
     pagecolor="#ffffff"
     bordercolor="#666666"
     borderopacity="1.0"
     inkscape:pageopacity="0.0"
     inkscape:pageshadow="2"
     inkscape:zoom="0.3675"
     inkscape:cx="667.57923"
     inkscape:cy="468.66712"
     inkscape:document-units="mm"
     inkscape:current-layer="layer1"
     showgrid="false"
     inkscape:window-width="800"
     inkscape:window-height="573"
     inkscape:window-x="0"
     inkscape:window-y="0"
     inkscape:window-maximized="1"
     showguides="false" />
  <metadata
     id="metadata5">
    <rdf:RDF>
      <cc:Work
         rdf:about="">
        <dc:format>image/svg+xml</dc:format>
        <dc:type
           rdf:resource="http://purl.org/dc/dcmitype/StillImage" />
        <dc:title></dc:title>
      </cc:Work>
    </rdf:RDF>
  </metadata>
  <g
     inkscape:label="Camada 1"
     inkscape:groupmode="layer"
     id="layer1"
     transform="translate(0,-87)">
    <path
       style="opacity:1;fill:none;fill-opacity:1;stroke:#000000;stroke-width:0.23579468;stroke-linecap:round;stroke-linejoin:round;stroke-miterlimit:4;stroke-dasharray:none;stroke-dashoffset:0;stroke-opacity:1"
       d="m 16.184096,112.70063 0,144.68655 c 0,6.34362 5.106839,11.45098 11.450465,11.45098 H 271.17422 c 6.34362,0 11.45045,-5.10736 11.45045,-11.45098 l 0,-144.68655 z"
       id="path4173"
       inkscape:connector-curvature="0"
       sodipodi:nodetypes="csssscc" />
    <path
       id="path4207"
       style="opacity:1;fill:#ffffff;fill-opacity:1;stroke:#000000;stroke-width:0.11642899;stroke-linecap:round;stroke-linejoin:round;stroke-miterlimit:4;stroke-dasharray:none;stroke-dashoffset:0;stroke-opacity:1"
       d="m 244.84152,181.27304 c 1.00403,5.2e-4 1.91187,0.59723 2.31045,1.51876 h 19.2195 1.90634 c 0,42.11302 0,84.22604 0,126.33906 h -1.99988 V 184.79168 H 247.1499 c -0.39827,0.92085 -1.3051,1.51748 -2.30838,1.51877 -1.39108,7e-5 -2.51878,-1.12764 -2.51871,-2.51871 -7e-5,-1.39107 1.12763,-2.51878 2.51871,-2.5187 z m -188.795141,0 c -1.004032,5.3e-4 -1.911878,0.59723 -2.310454,1.51877 H 34.516427 32.610083 c 0,42.11301 0,84.22603 0,126.33905 h 1.999878 V 184.79168 h 19.128032 c 0.398275,0.92085 1.3051,1.51748 2.308386,1.51877 1.391073,7e-5 2.518776,-1.12763 2.518709,-2.5187 6.7e-5,-1.39108 -1.127636,-2.51879 -2.518709,-2.51871 z m 130.382741,-1.5e-4 a 2.518588,2.518588 0 0 0 -2.51871,2.51871 2.518588,2.518588 0 0 0 2.51871,2.51871 2.518588,2.518588 0 0 0 2.31045,-1.51878 h 19.12596 v 124.33918 h 1.99988 V 184.79153 h 19.12803 a 2.518588,2.518588 0 0 0 2.30839,1.51878 2.518588,2.518588 0 0 0 2.51871,-2.51871 2.518588,2.518588 0 0 0 -2.51871,-2.51871 2.518588,2.518588 0 0 0 -2.31045,1.51877 h -40.25439 a 2.518588,2.518588 0 0 0 -2.30787,-1.51877 z m -58.41858,0 a 2.518588,2.518588 0 0 0 -2.51871,2.51871 2.518588,2.518588 0 0 0 2.51871,2.51871 2.518588,2.518588 0 0 0 2.31045,-1.51878 h 19.12596 v 124.33918 h 1.99988 V 184.79153 h 19.12803 a 2.518588,2.518588 0 0 0 2.30839,1.51878 2.518588,2.518588 0 0 0 2.51871,-2.51871 2.518588,2.518588 0 0 0 -2.51871,-2.51871 2.518588,2.518588 0 0 0 -2.31045,1.51877 h -40.25439 a 2.518588,2.518588 0 0 0 -2.30787,-1.51877 z m -58.418561,0 a 2.518588,2.518588 0 0 0 -2.518709,2.51871 2.518588,2.518588 0 0 0 2.518709,2.51871 2.518588,2.518588 0 0 0 2.310453,-1.51878 h 19.125964 v 124.33918 h 1.999877 V 184.79153 h 19.128037 a 2.518588,2.518588 0 0 0 2.30838,1.51878 2.518588,2.518588 0 0 0 2.51871,-2.51871 2.518588,2.518588 0 0 0 -2.51871,-2.51871 2.518588,2.518588 0 0 0 -2.31045,1.51877 H 71.899849 a 2.518588,2.518588 0 0 0 -2.30787,-1.51877 z"
       inkscape:connector-curvature="0" />
    <g
       id="g4279"
       transform="translate(-1.023661)">
      <rect
         transform="rotate(90)"
         y="-266.37103"
         x="116.43578"
         height="81"
         width="59"
         id="rect4264"
         style="opacity:1;fill:#4545ff;fill-opacity:0.80239521;stroke:none;stroke-width:0.25641027;stroke-linecap:round;stroke-linejoin:round;stroke-miterlimit:4;stroke-dasharray:none;stroke-dashoffset:0;stroke-opacity:1" />
      <rect
         y="160.03749"
         x="263.70154"
         height="10.423729"
         width="4.5762711"
         id="rect4266"
         style="opacity:1;fill:#4545ff;fill-opacity:0.80239521;stroke:none;stroke-width:0.21166667;stroke-linecap:round;stroke-linejoin:round;stroke-miterlimit:4;stroke-dasharray:none;stroke-dashoffset:0;stroke-opacity:1" />
      <rect
         y="121.0678"
         x="258.55933"
         height="7.6271181"
         width="10.423729"
         id="rect4272"
         style="opacity:1;fill:#4545ff;fill-opacity:0.80239521;stroke:none;stroke-width:0.21166667;stroke-linecap:round;stroke-linejoin:round;stroke-miterlimit:4;stroke-dasharray:none;stroke-dashoffset:0;stroke-opacity:1" />
    </g>
    <g
       transform="translate(-2.6726953,124.08942)"
       id="g4321">
      <g
         id="g4319"
         transform="translate(1.0583333,-2.1166667)">
        <circle
           style="opacity:1;fill:#4545ff;fill-opacity:0.80239521;stroke:none;stroke-width:0.19354708;stroke-linecap:round;stroke-linejoin:round;stroke-miterlimit:4;stroke-dasharray:none;stroke-dashoffset:0;stroke-opacity:1"
           id="circle4315"
           cx="275.89529"
           cy="138.13689"
           r="3" />
        <circle
           r="1.525"
           cy="138.13689"
           cx="275.89529"
           id="circle4317"
           style="opacity:1;fill:#4545ff;fill-opacity:0.80239521;stroke:none;stroke-width:0.09838644;stroke-linecap:round;stroke-linejoin:round;stroke-miterlimit:4;stroke-dasharray:none;stroke-dashoffset:0;stroke-opacity:1" />
      </g>
    </g>
    <g
       id="g4329"
       transform="translate(-2.6726953,-3.4089076e-6)">
      <g
         transform="translate(1.0583333,-2.1166667)"
         id="g4327">
        <circle
           r="3"
           cy="138.13689"
           cx="275.89529"
           id="circle4323"
           style="opacity:1;fill:#4545ff;fill-opacity:0.80239521;stroke:none;stroke-width:0.19354708;stroke-linecap:round;stroke-linejoin:round;stroke-miterlimit:4;stroke-dasharray:none;stroke-dashoffset:0;stroke-opacity:1" />
        <circle
           style="opacity:1;fill:#4545ff;fill-opacity:0.80239521;stroke:none;stroke-width:0.09838644;stroke-linecap:round;stroke-linejoin:round;stroke-miterlimit:4;stroke-dasharray:none;stroke-dashoffset:0;stroke-opacity:1"
           id="circle4325"
           cx="275.89529"
           cy="138.13689"
           r="1.525" />
      </g>
    </g>
    <rect
       style="opacity:1;fill:#4545ff;fill-opacity:0.80239521;stroke:none;stroke-width:0.21166667;stroke-linecap:round;stroke-linejoin:round;stroke-miterlimit:4;stroke-dasharray:none;stroke-dashoffset:0;stroke-opacity:1"
       id="rect4331"
       width="32.757935"
       height="46.79705"
       x="134.99149"
       y="112.01843" />
    <g
       id="g4359"
       transform="translate(0.78345609)">
      <rect
         y="127.24292"
         x="171.98534"
         height="14.75907"
         width="2.1598639"
         id="rect4333"
         style="opacity:1;fill:#4545ff;fill-opacity:0.80239521;stroke:none;stroke-width:0.21166667;stroke-linecap:round;stroke-linejoin:round;stroke-miterlimit:4;stroke-dasharray:none;stroke-dashoffset:0;stroke-opacity:1" />
      <rect
         style="opacity:1;fill:#4545ff;fill-opacity:0.80239521;stroke:none;stroke-width:0.21166667;stroke-linecap:round;stroke-linejoin:round;stroke-miterlimit:4;stroke-dasharray:none;stroke-dashoffset:0;stroke-opacity:1"
         id="rect4335"
         width="2.1598639"
         height="14.75907"
         x="127.02879"
         y="127.24292" />
    </g>
    <g
       id="g4343"
       transform="translate(-253.21691,124.08942)">
      <g
         transform="translate(1.0583333,-2.1166667)"
         id="g4341">
        <circle
           r="3"
           cy="138.13689"
           cx="275.89529"
           id="circle4337"
           style="opacity:1;fill:#4545ff;fill-opacity:0.80239521;stroke:none;stroke-width:0.19354708;stroke-linecap:round;stroke-linejoin:round;stroke-miterlimit:4;stroke-dasharray:none;stroke-dashoffset:0;stroke-opacity:1" />
        <circle
           style="opacity:1;fill:#4545ff;fill-opacity:0.80239521;stroke:none;stroke-width:0.09838644;stroke-linecap:round;stroke-linejoin:round;stroke-miterlimit:4;stroke-dasharray:none;stroke-dashoffset:0;stroke-opacity:1"
           id="circle4339"
           cx="275.89529"
           cy="138.13689"
           r="1.525" />
      </g>
    </g>
    <g
       transform="translate(-253.21691,-3.4089076e-6)"
       id="g4351">
      <g
         id="g4349"
         transform="translate(1.0583333,-2.1166667)">
        <circle
           style="opacity:1;fill:#4545ff;fill-opacity:0.80239521;stroke:none;stroke-width:0.19354708;stroke-linecap:round;stroke-linejoin:round;stroke-miterlimit:4;stroke-dasharray:none;stroke-dashoffset:0;stroke-opacity:1"
           id="circle4345"
           cx="275.89529"
           cy="138.13689"
           r="3" />
        <circle
           r="1.525"
           cy="138.13689"
           cx="275.89529"
           id="circle4347"
           style="opacity:1;fill:#4545ff;fill-opacity:0.80239521;stroke:none;stroke-width:0.09838644;stroke-linecap:round;stroke-linejoin:round;stroke-miterlimit:4;stroke-dasharray:none;stroke-dashoffset:0;stroke-opacity:1" />
      </g>
    </g>
  </g>
</svg>
